<svg id="ba457261-f182-42e3-9e13-3a772e236ade" data-name="Ebene 1" xmlns="http://www.w3.org/2000/svg" width="50cm" height="50cm" viewBox="0 0 1417.32 1417.33">
  <g>
    <circle cx="708.66" cy="708.67" r="708.66" transform="translate(-293.54 708.66) rotate(-45)"/>
    <path d="M1396.27,708.67c0,379.75-307.85,687.6-687.61,687.6S21,1088.42,21,708.67,328.9,21.06,708.66,21.06,1396.27,328.9,1396.27,708.67Z" style="fill: #fff"/>
    <path d="M1382.52,708.67c0,372.17-301.69,673.86-673.86,673.86S34.79,1080.84,34.79,708.67,336.5,34.81,708.66,34.81,1382.52,336.51,1382.52,708.67Z"/>
    <path d="M1198.7,708.67c0,270.64-219.39,490-490,490s-490-219.4-490-490,219.38-490,490-490S1198.7,438,1198.7,708.67Z" style="fill: #fff"/>
    <path d="M1184.15,708.67c0,262.6-212.87,475.47-475.49,475.47S233.19,971.27,233.19,708.67,446.07,233.19,708.66,233.19,1184.15,446.07,1184.15,708.67Z"/>
    <path d="M1165.36,708.67c0,252.24-204.47,456.69-456.7,456.69S252,960.91,252,708.67,456.44,252,708.66,252,1165.36,456.44,1165.36,708.67Z" style="fill: #fbea01"/>
    <path d="M831.59,293.08,731,1104.14l-62.36-.12L614.53,293.08l55.7-15.49,35,615.46L778.63,280.4ZM876.18,703l35.61,6.48s-2.42,148.1-8.9,213.65c-3.14,31.79-1.61,73.65-21.84,79.31-8.91-.81-12.95-9.71-14.39-23.6-20.89-190.72.41-516.58,17.13-574.37,6.46-22.3,21.33-26.2,23.14-2.52l5.22,135.55h47.79S953.2,423,951.69,406.89c-3.89-73.72-64-122.7-105.73-20.86C806.19,512.62,801.74,631,798.48,771c-1.6,70.39-3.25,168.52,21.87,243.61,9.94,23.86,29.42,47.61,55,49.37,27.61-2,55.84-37.25,61.5-72,18.47-113.38,23.28-335.82,23.28-335.82l-82.33-1.65ZM606.7,400.34l.38,374.1c-.85,31.37-6,47-30.34,58.19-18.41,6.21-36.37,13.23-58,12l-.08,216.84-54.4-33.11.81-655.13c24.86-27.84,54.48-60.24,94-50C607,340,606.7,400.34,606.7,400.34Zm-54.31-4.24c-1.74-16.41-17.94-15.5-31.11-15l-2.48,411c12.92-1,30.25-2.15,32.83-17.67Zm483.32,287.59-2.47,43,29.09,2.19s5.78,139.23-26.62,146.49c-9.81-.45-13.87-15.38-15.16-25.11-19.4-107.9-5.8-287.7,10.21-332.92,3.88-10.31,12.59-28,18.42,1.08,5.32,24.74,8.73,60.52,12.34,101.71l45.38-2.28c-5.22-44.81-10.31-92-29.63-131.56-8.84-14.56-22.65-29.38-41.56-24.41-30.07,8.7-45.72,38.6-53,73.52-19.45,93.38-20.09,197.75-7.41,294.73,5.22,28.34,8.11,61.14,28.73,83.26,31.91,36.71,69.39-1.62,79.08-20.06,28.79-50.79,29.36-212.2,29.36-212.2ZM359.93,651.12c-8.71-43.76,1.38-99.52,3.62-109.37,4.66-20.41,19.93-38,22.12-11.07l7.06,90.11,50.17-3.9c-4.71-43.75-3.76-62.15-17-117.35-6.79-22.81-24.74-40.26-49.48-32.5-82.8,34.56-77.59,186.22-75.19,223.11,5.84,32.49,87.11,9.43,88.77,32.49,4,39,7.87,152.33-15,155.24-26.95.74-28.16-80.6-28.16-80.6l.56-27.81L297,777.19c-.59,38.09,2.82,79.31,15.42,106,11.51,24.31,36.49,43.36,62.09,45.11,35.05-2.5,61.6-37.84,66.45-77.61,4.36-50.44,7.74-100.4,0-166.84C436.34,644.23,363.36,667.83,359.93,651.12Z"/>
    <path d="M1292.21,859.49a25.49,25.49,0,1,1-25.5-25.48A25.49,25.49,0,0,1,1292.21,859.49Zm-1118.14,0A25.5,25.5,0,1,0,148.57,885,25.48,25.48,0,0,0,174.07,859.49ZM234.59,1044l-.28.2a23.43,23.43,0,0,1,3.22,10.48,24.06,24.06,0,0,1-1.54,9.7,28.64,28.64,0,0,1-5,8.36,36.85,36.85,0,0,1-7.29,6.55,50.45,50.45,0,0,1-13.47,6.64,30.7,30.7,0,0,1-13.36,1.18,29.54,29.54,0,0,1-12.83-5.31,48.9,48.9,0,0,1-12-12.75l-27.62-40.54,103.18-70.3,27.63,40.54q9.86,14.46,7.51,26.08t-14,19.6a39.71,39.71,0,0,1-8.52,4.43,28.5,28.5,0,0,1-8.9,1.83,22.26,22.26,0,0,1-8.67-1.39A23.16,23.16,0,0,1,234.59,1044Zm-22.22-11.48-5.09-7.46-25.15,17.14,5.09,7.46a10.6,10.6,0,0,0,7.6,4.49q5.06.75,11.57-3.68,6.08-4.14,7.3-9.17A10.53,10.53,0,0,0,212.37,1032.5Zm25-9.2a15.11,15.11,0,0,0,8.77-2.82,15.77,15.77,0,0,0,6-7.28,8.61,8.61,0,0,0-1.14-8.47l-4.4-6.48-21.09,14.37,4.41,6.47A8.74,8.74,0,0,0,237.33,1023.3ZM347.83,1083l31.4,26.25L322.5,1224.59l-26.57-22.2,11.47-18.9-19.85-16.59L271,1181.53l-26.16-21.86Zm-.56,32.85-.26-.23-40.82,34.94,13.95,11.65Zm110.81,98.48-.33-.15,6.27-44.79-32.18-14.11-1.74,81.9-19.73,45,29.79,13.06,19.73-45,59.54-56.57-32.66-14.31Zm196.88,33a46.37,46.37,0,0,1,.45,13.4q-1.3,12.54-7.13,19.66t-17.15,7.72l0,.35q11.56,2.25,15.17,9.82t2.31,20.11l-1.1,10.61c-.18,1.63-.34,3.31-.53,5s-.28,3.41-.33,5a40.18,40.18,0,0,0,.08,4.33,11.46,11.46,0,0,0,.56,3c.39.75.78,1.47,1.18,2.15a6.77,6.77,0,0,0,2.08,2.06l-.18,1.75-34.44-3.58a21.07,21.07,0,0,1-1.23-5.92,60.16,60.16,0,0,1-.18-6.7c0-2.22.15-4.34.31-6.38s.29-3.68.42-5l.87-8.34a60.37,60.37,0,0,0,.38-8.76,14,14,0,0,0-1.26-5.65,7,7,0,0,0-3-3.13,13.46,13.46,0,0,0-4.87-1.3l-8.53-.88-5.15,49.71-32.35-3.36,12.89-124.18,50.59,5.25a45.42,45.42,0,0,1,15.49,4.06,27.3,27.3,0,0,1,9.88,8A26.71,26.71,0,0,1,655,1247.35Zm-34.44,3.27c-1.92-2.43-5.32-3.9-10.16-4.4l-6.27-.65-3,29.23,6.44.67c4.62.47,8.18-.53,10.67-3s3.94-6,4.4-10.35Q623.38,1254.26,620.52,1250.62Zm172.86,72.5-4.09-24.56,38.3-6.36L823.4,1267l-38.29,6.36-3.5-21,40.87-6.79-4.35-26.21-73,12.13,20.48,123.17,74.5-12.39-4.35-26.19ZM1007.49,1231l-37.55-72.68L941,1173.21l41.31,80q4.17,8.08,3.25,12a9.89,9.89,0,0,1-12.71,6.57q-3.75-1.5-7.91-9.58l-41.31-80-28.89,14.92,37.55,72.69q6,11.64,12.51,18.13a33.32,33.32,0,0,0,13.65,8.68,27.6,27.6,0,0,0,15.08.28,86.46,86.46,0,0,0,32.22-16.64,27.86,27.86,0,0,0,8.45-12.43,33.78,33.78,0,0,0,.8-16.15Q1013.5,1242.63,1007.49,1231Zm97.31-145-18.88-20.14-59.19,55.49,18.88,20.14,17.61-16.5,66.5,71,23.73-22.24-66.51-71Zm43.77-105.82,37.71,26L1175,1022.46l-37.73-26-18.43,26.78,102.8,70.83,18.46-26.77-42.37-29.19,11.27-16.36,42.37,29.19,18.45-26.79L1167,953.33ZM130.62,718.32A56.64,56.64,0,0,0,138,705.8q2.89-6.78,5.68-12.57a34.42,34.42,0,0,1,6.59-9.57c2.54-2.52,5.91-3.7,10.1-3.58a14,14,0,0,1,8.75,3,9.58,9.58,0,0,1,3.37,8.15,10.29,10.29,0,0,1-3.57,7.85c-2.29,2-6.18,2.89-11.71,2.73l-3.06-.1-.95,32.42,4.5.15q10.08.28,17-2.4a26.85,26.85,0,0,0,11.34-8.06,33.19,33.19,0,0,0,6.34-13.34,89.55,89.55,0,0,0,2.25-18.43q.66-22.19-8.27-34.17t-29.48-12.59q-11.71-.35-19.13,3.5a36.34,36.34,0,0,0-12.1,9.86,59.42,59.42,0,0,0-7.68,13q-3,7-5.88,13a37.11,37.11,0,0,1-6.69,10q-3.81,4-10.12,3.77a13,13,0,0,1-7.75-2.75c-2.3-1.76-3.4-4.45-3.28-8.07a7.77,7.77,0,0,1,4.25-7.12,19.57,19.57,0,0,1,9.9-2.06l3,.09.94-31.37Q81.7,646.57,72,656.14T61.57,687.69q-.63,21.28,9.34,32t29.59,11.35q11.32.31,18.49-3.35A34.73,34.73,0,0,0,130.62,718.32Zm67.94-101.83L74,584.08l12.66-48.66a41.28,41.28,0,0,1,7.15-15.28A31.77,31.77,0,0,1,104.89,511a33.73,33.73,0,0,1,13.82-3.4,54.71,54.71,0,0,1,15.73,1.87q19.38,5.06,26.37,17.94t1.77,33l-3,11.35L207,584.07Zm-62-67.28Q133.76,545,125.92,543q-15.17-3.94-18.44,8.65l-1.59,6.12,30.33,7.89,1.59-6.12C138.87,555.44,138.45,552,136.58,549.21Zm110.26-74.15-116.79-54L116,451.5l116.79,54Zm59.61-94.56-22.59-15.59-25.17,36.5-21-14.5L260.39,354,238.75,339,216,372,197.94,359.5l24.25-35.17L199.6,308.74l-43.3,62.78L262.24,444.6ZM333,313.68l-69.84-73.19L238.9,263.64l88.79,93.06,54.13-51.63-19-19.88Zm64.29-173.83-29.87,19.51,41.7,88.56-.3.19-64.35-73.76-29.42,19.23,93.16,92.81,36.22-23.66Zm166.12,69.93-9.71-25.62-41.47,15.71-9.08-24,37.43-14.17-9.3-24.58-37.43,14.18-7.8-20.6L526,115.62,516.29,90,445,117l45.59,120.35Zm122.1-22.41.26,1.79L650.37,194a22.58,22.58,0,0,1-2.69-5.64,67.26,67.26,0,0,1-1.81-6.67c-.48-2.24-.9-4.41-1.24-6.48s-.61-3.78-.79-5.09l-1.16-8.58a65.58,65.58,0,0,0-1.75-8.86,14.2,14.2,0,0,0-2.64-5.38,7.12,7.12,0,0,0-3.77-2.4,14.29,14.29,0,0,0-5.17-.13l-8.7,1.19,6.94,51.13-33.24,4.52L577,74,629,67a46.79,46.79,0,0,1,16.51.29,28,28,0,0,1,11.86,5.58,27.45,27.45,0,0,1,7.54,10,48.07,48.07,0,0,1,3.72,13.32q1.75,12.87-2.37,21.42t-15.33,11.91l.05.36q12.1-.54,17.57,6.17t7.2,19.59l1.48,10.9c.22,1.67.46,3.4.71,5.19s.54,3.48.88,5.07a43.29,43.29,0,0,0,1.11,4.31,11.48,11.48,0,0,0,1.32,2.91q.85,1,1.71,1.86A7.07,7.07,0,0,0,685.51,187.37ZM636,105.48q-1.08-8-4.85-11c-2.51-2-6.24-2.6-11.24-1.92l-6.42.87,4.08,30,6.6-.9q7.13-1,9.94-5.62C636,113.82,636.62,110,636,105.48Zm160.78,63.8-44.17-3.9,2.26-25.52,39.85,3.53,2.34-26.25-39.87-3.52,1.93-21.86,42.56,3.76,2.41-27.29-75.91-6.72L716.86,189.72l77.52,6.85ZM857.1,79.42l-33,124.44,32.42,8.6L889.51,88Zm95,84.17.33.15-14.27,81.35L971.23,261l55.65-116.06-28.24-13.54-34.29,71.52-.32-.15,14.83-80.86L945.1,105.68,889.45,221.75l28.24,13.53Zm123.47,13.59L999.28,280.92l27,19.83L1102.51,197Zm3.16,119.11q-8.34,9.27-11.91,17.85a26.63,26.63,0,0,0-1.55,16.85q2,8.29,10.81,17.61a70.84,70.84,0,0,0,6.27,5.87,37.74,37.74,0,0,0,6.84,4.46,20,20,0,0,0,7.53,2.07,17.67,17.67,0,0,0,8.13-1.36l.24.27-7.71,8.3,15.58,16.5,50.82-48L1134,305.27l-16.51,15.6,8.16,8.64a92.76,92.76,0,0,1-10.45,8.76,30.23,30.23,0,0,1-7.57,4.06,8.57,8.57,0,0,1-5.37.23,10.44,10.44,0,0,1-4.07-2.74,8.84,8.84,0,0,1-2.71-5.75c-.07-2,.84-4.44,2.76-7.32a78.47,78.47,0,0,1,8.84-10.47q6-6.13,15.41-15.06t15.9-14.52a78.13,78.13,0,0,1,10.95-8.25c3-1.74,5.5-2.48,7.58-2.2a10,10,0,0,1,6,3.4q4.06,4.32,1.25,9.46-2.18,4.51-9.65,11.58l22.33,23.63q8.52-8,12.38-15.9a35.84,35.84,0,0,0,4-15.4,32.16,32.16,0,0,0-3.36-14.58,54.26,54.26,0,0,0-9.51-13.48q-10.15-10.74-19.81-14.54a34.25,34.25,0,0,0-19.47-1.84q-9.81,2-20.16,9.12A191.83,191.83,0,0,0,1098.72,276Q1087.05,287,1078.69,296.29Zm73.67,105.64a34.52,34.52,0,0,0-8.26,14.48,28.63,28.63,0,0,0,.47,15.54,89,89,0,0,0,18.75,32.32,28.57,28.57,0,0,0,13.21,8.05,34.49,34.49,0,0,0,16.68,0q9.22-2,20.94-8.82l73-42.32-16.8-29L1190,438.83q-8.12,4.71-12.19,3.95a10.23,10.23,0,0,1-7.43-12.78c.91-2.63,4.08-5.49,9.49-8.63l80.34-46.6-16.81-29-73,42.32Q1158.71,394.92,1152.36,401.93Zm46,145.26,76.22-22.4.09.34L1204.71,569l10.35,35.23,123.4-36.28-8.86-30.13-76,22.37-.09-.31,69.94-43.11-10.57-35.94-123.4,36.29Zm155.53,131.89q-.69-14.77-5.54-24a34.13,34.13,0,0,0-13.58-14.07c-5.8-3.28-12.9-5.36-21.23-6.23a191.17,191.17,0,0,0-28.73-.54q-16,.75-28.41,2.33t-20.68,5.76a26.69,26.69,0,0,0-12.17,11.78q-3.9,7.58-3.28,20.37a67.2,67.2,0,0,0,1,8.54,35.5,35.5,0,0,0,2.26,7.84,20.28,20.28,0,0,0,4.36,6.48,18.06,18.06,0,0,0,7.07,4.27V702l-11.31,1.26,1.07,22.71,69.88-3.29-2-43.25-22.68,1.07.55,11.89a95.13,95.13,0,0,1-13.64-.18,30,30,0,0,1-8.37-1.86,8.5,8.5,0,0,1-4.22-3.32,10.17,10.17,0,0,1-1.31-4.73,8.79,8.79,0,0,1,1.7-6.12c1.26-1.56,3.54-2.81,6.86-3.75a76.26,76.26,0,0,1,13.53-2.17q8.53-.76,21.51-1.38c8.64-.4,15.82-.63,21.54-.65a77.27,77.27,0,0,1,13.67.89c3.39.63,5.8,1.71,7.18,3.27a10.11,10.11,0,0,1,2.31,6.5q.27,6-5.22,8c-3.07,1.36-8,2.19-14.86,2.52l1.53,32.41q11.7-.55,19.75-4a35.83,35.83,0,0,0,13-9.12,32,32,0,0,0,7-13.24A53.88,53.88,0,0,0,1353.84,679.08Z" style="fill: #fbea01"/>
  </g>
</svg>
