<svg id="Ebene_2" data-name="Ebene 2" xmlns="http://www.w3.org/2000/svg" xmlns:xlink="http://www.w3.org/1999/xlink" viewBox="0 0 283.46 283.46"><defs><style>.cls-1{fill:#191919;}.cls-2{fill:#fff;}.cls-3{fill:url(#Unbenannter_Verlauf_3);}.cls-4{fill:url(#Unbenannter_Verlauf_2);}.cls-5{fill:#313130;}.cls-6{fill:#ffe600;}</style><radialGradient id="Unbenannter_Verlauf_3" cx="141.73" cy="141.73" r="138.27" gradientUnits="userSpaceOnUse"><stop offset="0" stop-color="#fff9a8"/><stop offset="0.02" stop-color="#fff8a1"/><stop offset="0.2" stop-color="#fff370"/><stop offset="0.37" stop-color="#ffee48"/><stop offset="0.54" stop-color="#ffeb28"/><stop offset="0.71" stop-color="#ffe812"/><stop offset="0.86" stop-color="#ffe705"/><stop offset="1" stop-color="#ffe600"/></radialGradient><radialGradient id="Unbenannter_Verlauf_2" cx="141.18" cy="140.81" r="109.33" gradientUnits="userSpaceOnUse"><stop offset="0" stop-color="#ededed"/><stop offset="0.09" stop-color="#ccc"/><stop offset="0.3" stop-color="#8b8b8b"/><stop offset="0.52" stop-color="#4e4e4e"/><stop offset="0.68" stop-color="#282828"/><stop offset="0.76" stop-color="#191919"/></radialGradient></defs><path class="cls-1" d="M141.73,283.46c78.05,0,141.73-63.68,141.73-141.73S219.78,0,141.73,0,0,63.68,0,141.73,63.68,283.46,141.73,283.46Z"/><path class="cls-2" d="M141.73,42.48A99.25,99.25,0,1,0,241,141.73,99.46,99.46,0,0,0,141.73,42.48Zm0,196.16a96.91,96.91,0,1,1,96.91-96.91A97.13,97.13,0,0,1,141.73,238.64Zm0-235.08C65.63,3.56,3.56,65.63,3.56,141.73S65.63,279.9,141.73,279.9,279.9,217.84,279.9,141.73,217.84,3.56,141.73,3.56Zm0,274c-74.81,0-135.83-61-135.83-135.83S66.92,5.9,141.73,5.9s135.83,61,135.83,135.83S216.54,277.56,141.73,277.56Z"/><path class="cls-3" d="M141.73,235.12a93.39,93.39,0,1,0-93.38-93.39A93.61,93.61,0,0,0,141.73,235.12Z"/><path class="cls-4" d="M141.12,185.18,134.6,59.47l-11.16,2.34,11.13,160.35H148.9L160,61.81l-11.16-2.34-6.52,125.71ZM79.74,127.12c-.83-6.77-.94-14.55-1.51-18.4-.61-4.25-3.46-1.48-3.82,1-1,7-1.51,13.35-1.83,19.37-.15,2.44.32,5.11,3.2,5.79l7.45.29c5.22.25,6.19,9.72,6.27,13.21l-1,24.55c-.21,5.4-5,13.32-10.83,14.48-6,1.18-11-2.88-13.47-7.85-2.95-6.16-3.45-15.19-3.6-21.89l10.3-1.55c.4,6.34.76,11.67,1.4,15.55.44,2.67,2.74,9.8,5.08,4.07a25.06,25.06,0,0,0,1.37-7.63l.5-18.11c.11-3.89-2-6.12-6-6l-4.72.14a7.7,7.7,0,0,1-7.12-8.24,113.55,113.55,0,0,1,1.62-17c1.26-6.62,4.42-14.68,8.53-18.64s11.09-4.83,14,1.18c3.1,6.38,3.89,17.54,4.65,24.45ZM123,87.7l-1,67.17c-.18,13.14-6.77,15.7-18.76,15.37L103,214l-11.63-7L93.13,78.62c3.35-5.65,12.06-13.89,20.34-10.11,7.74,4.25,10.12,12.67,9.54,19.19Zm-19.08-7.92-.57,80.92c3.7.9,9.25-2.34,9.21-6.48l-.25-66.49c0-2.19,0-4.1-.76-5.76C110.56,79.81,108.29,78.37,103.93,79.78Zm59.55,21.34c1-9.72,4.14-27.36,16.16-29.52,13.61-2.44,11.05,31.18,11.66,39.1l-9.14-.14-.25-21.89c0-2.34-.07-5-.9-6.34-1-1.69-3.06-1.19-3.93,4.21-4.46,27.51-6,54.69-6,81.8.22,10.94.65,21.45,2.13,28.51,2.59,12.63,4.71,4.68,5.65-2.38a284.5,284.5,0,0,0,1.83-51l-4.82.32-.43-10.29,16,.14c-.29,15.84,0,31.72-1.48,47.59-1,11-2,41.19-21.13,31.18-3.31-2.05-5.94-6.41-7.06-12.92C156.85,171,160.56,130.25,163.48,101.12Zm31,18.62c1.11-8.86,3.27-18.11,8.13-22.07,3.24-2.63,8.21-3.17,11.13,1,4,5.65,6.44,24.84,6.84,27.68l-9.08.43L209.7,107.1c-1.15-3.67-2.84-2.34-3.92-.47-2,3.53-4,24.63-4,34.89,0,1.72.32,14.5,1.12,24.48.72,9,4.1,17.82,7.09,4.6a100,100,0,0,0,1.87-22.39l-5.65-.32.54-8.89,15-.62c.08,6,0,31.4-6.55,43.06-1.91,3.42-4.57,5.54-8.06,5.47-8.64-.18-11.41-7.95-12.42-15.33A203.07,203.07,0,0,1,194.44,119.74Z"/><path class="cls-5" d="M149.78,60.67,159,62.6,148,221.17H135.49l-11-158.57,9.19-1.93,6.46,124.57a1,1,0,0,0,1,.93h1.22a1,1,0,0,0,1-.93l6.45-124.57m-40.69,7.86h0a9.45,9.45,0,0,1,3.94.86,16.76,16.76,0,0,1,7.43,8.25,21,21,0,0,1,1.57,10v.07l-1,67.18c-.08,5.74-1.38,9.43-4.1,11.61-2.42,1.95-6.07,2.82-11.83,2.82l-1.82,0h0a1,1,0,0,0-.68.28,1,1,0,0,0-.3.7l-.28,42-9.66-5.83L94.11,78.9c2.6-4.25,8.61-10.37,15-10.37m-4.41,93.31a10.06,10.06,0,0,0,6.78-2.93,6.59,6.59,0,0,0,2.1-4.69l-.26-66.5v-.51a14,14,0,0,0-.84-5.65,5.63,5.63,0,0,0-5.39-3.33,11.42,11.42,0,0,0-3.44.61,1,1,0,0,0-.68.93l-.58,80.93a1,1,0,0,0,.75,1,6.6,6.6,0,0,0,1.56.18M181,71.48v1c2,0,3.61,1,5,3.09a24.08,24.08,0,0,1,2.87,8.33c1.27,6.77,1.32,14.94,1.36,20.91,0,2,0,3.63.07,4.91l-7.13-.11-.24-20.94v0c0-2.58-.08-5.24-1-6.79a2.48,2.48,0,0,0-2.08-1.33c-1,0-2.84.76-3.66,5.9-4,24.73-6,51.53-6,82v0c.21,10.57.61,21.37,2.14,28.69,1.1,5.36,2.14,7.45,3.7,7.45.77,0,2.58,0,3.89-9.9a284.39,284.39,0,0,0,1.85-51.19,1,1,0,0,0-.33-.68.94.94,0,0,0-.66-.25h-.06l-3.82.25-.34-8.25,14,.13c-.06,3.51-.1,7.07-.13,10.52-.12,11.81-.24,24-1.33,36-.07.81-.15,1.74-.23,2.72-.87,10.33-2.47,29.57-12.95,29.57a14.41,14.41,0,0,1-6.48-1.87c-3.24-2-5.57-6.37-6.58-12.24-2.18-12.6-2.86-28.54-2.08-48.72.65-16.6,2.2-33.54,3.79-49.37a63.05,63.05,0,0,1,3.86-17.32c2.73-6.63,6.59-10.45,11.49-11.33a7.33,7.33,0,0,1,1.2-.11v-1m27,24.14v1a5.72,5.72,0,0,1,4.84,2.64c1.35,1.93,4,7.89,6.52,26.19l-7,.33L210.68,107a1.18,1.18,0,0,0,0-.2c-.63-2-1.56-3-2.77-3-1,0-2.06.81-3,2.36-2.2,3.92-4.09,25.84-4.12,35.37,0,1.55.3,14.35,1.12,24.55.16,2.05,1.15,12.25,4.77,12.25,1.77,0,3.09-2.31,4.26-7.5a101.09,101.09,0,0,0,1.89-22.67,1,1,0,0,0-.92-.92l-4.67-.27.43-7,13.07-.53c0,6.85-.32,30.61-6.44,41.55-1.84,3.3-4.2,5-7,5h-.15a9.52,9.52,0,0,1-8.27-4.53c-1.56-2.37-2.6-5.63-3.2-10a203.16,203.16,0,0,1-.25-51.58c1.43-11.31,4-18.32,7.78-21.43a8,8,0,0,1,4.86-1.83v-1M78.89,97.15v1a6.16,6.16,0,0,1,5.8,3.78c2.63,5.42,3.57,14.63,4.26,21.35q.09.93.18,1.8l-8.53,1c-.36-3.24-.57-6.68-.76-9.74s-.36-5.84-.64-7.71c-.38-2.65-1.64-3-2.36-3-1.66,0-3.12,2.14-3.4,4.06-1.14,7.82-1.6,14.85-1.85,19.45-.15,2.64.41,6,4,6.81l.19,0,7.44.28c4,.2,5.24,8.06,5.33,12.22l-1,24.53a17,17,0,0,1-3.15,8.3c-2,2.86-4.51,4.77-6.89,5.24a9.49,9.49,0,0,1-1.9.19,10.33,10.33,0,0,1-6.2-2.19,14.62,14.62,0,0,1-4.29-5.31c-2.7-5.64-3.31-13.86-3.48-20.62L70,157.27c.37,6,.73,10.9,1.34,14.57,0,.07,1.23,7.06,4.18,7.06,1.65,0,2.5-2.09,2.78-2.77a25.69,25.69,0,0,0,1.44-8L80.26,150a7,7,0,0,0-1.73-5.19,6.78,6.78,0,0,0-5-1.84h-.3l-4.64.14a6.72,6.72,0,0,1-6.19-7.23,118.91,118.91,0,0,1,1.6-16.8A48.54,48.54,0,0,1,67.14,109a25.45,25.45,0,0,1,5.11-8,9.93,9.93,0,0,1,6.64-2.87v-1m70-37.68-6.52,125.71h-1.22L134.6,59.47l-11.16,2.34,11.13,160.35H148.9L160,61.81l-11.16-2.34Zm-39.77,8.08c-6.8,0-13.2,6.42-16,11.07L91.37,207,103,214l.28-43.78,1.85,0c10.82,0,16.74-3,16.91-15.4l1-67.17c.58-6.52-1.8-14.94-9.54-19.19a10.39,10.39,0,0,0-4.38-1Zm-4.41,93.31a5.19,5.19,0,0,1-1.32-.16l.57-80.92a10.22,10.22,0,0,1,3.14-.56A4.61,4.61,0,0,1,111.56,82c.76,1.66.72,3.57.76,5.76l.25,66.49c0,3.67-4.32,6.64-7.89,6.64ZM181,71.48a8.28,8.28,0,0,0-1.37.12c-12,2.16-15.19,19.8-16.16,29.52-2.92,29.13-6.63,69.92-1.7,98.36,1.12,6.51,3.75,10.87,7.06,12.92a15.21,15.21,0,0,0,7,2c12.44,0,13.26-23.69,14.16-33.18,1.44-15.87,1.19-31.75,1.48-47.59l-16-.14.43,10.29,4.82-.32a284.5,284.5,0,0,1-1.83,51c-.58,4.35-1.61,9-2.92,9-.81,0-1.74-1.81-2.73-6.66-1.48-7.06-1.91-17.57-2.13-28.51,0-27.11,1.55-54.29,6-81.8.59-3.66,1.71-5.07,2.69-5.07a1.55,1.55,0,0,1,1.24.86c.83,1.33.86,4,.9,6.34l.25,21.89,9.14.14c-.59-7.64,1.77-39.22-10.29-39.22Zm27,24.14a8.87,8.87,0,0,0-5.48,2c-4.86,4-7,13.21-8.13,22.07a203.07,203.07,0,0,0,.25,51.84c1,7.38,3.78,15.15,12.42,15.33h.17c3.41,0,6-2.11,7.89-5.47,6.52-11.66,6.63-37.08,6.55-43.06l-15,.62-.54,8.89,5.65.32A100,100,0,0,1,210,170.6c-1.1,4.85-2.25,6.74-3.3,6.74-1.81,0-3.34-5.62-3.79-11.34-.8-10-1.12-22.76-1.12-24.48,0-10.26,2-31.36,4-34.89.58-1,1.34-1.86,2.09-1.86s1.3.63,1.83,2.33l1.76,19.69,9.08-.43c-.4-2.84-2.88-22-6.84-27.68a6.73,6.73,0,0,0-5.65-3.06ZM78.89,97.15a10.87,10.87,0,0,0-7.32,3.15c-4.11,4-7.27,12-8.53,18.64a113.55,113.55,0,0,0-1.62,17,7.7,7.7,0,0,0,7.12,8.24l4.72-.14h.27c3.79,0,5.85,2.21,5.74,6l-.5,18.11a25.06,25.06,0,0,1-1.37,7.63c-.64,1.56-1.27,2.17-1.87,2.17-1.59,0-2.89-4.3-3.21-6.24-.64-3.88-1-9.21-1.4-15.55l-10.3,1.55c.15,6.7.65,15.73,3.6,21.89,2.13,4.38,6.32,8.05,11.38,8.05a10.79,10.79,0,0,0,2.09-.2c5.79-1.16,10.62-9.08,10.83-14.48l1-24.55c-.08-3.49-1-13-6.27-13.21l-7.45-.29c-2.88-.68-3.35-3.35-3.2-5.79.32-6,.82-12.42,1.83-19.37.23-1.55,1.42-3.21,2.43-3.21.61,0,1.16.6,1.39,2.2.57,3.85.68,11.63,1.51,18.4l10.48-1.19c-.76-6.91-1.55-18.07-4.65-24.45a7.17,7.17,0,0,0-6.68-4.33Z"/><path class="cls-6" d="M216.38,32.76,201,57.36,195.68,54l15.38-24.61ZM129.17,256.32a6.58,6.58,0,0,1-3,2,.33.33,0,0,0-.22.26.31.31,0,0,0,.13.31c1.7,1.26,2.22,3.43,1.6,6.62a.17.17,0,0,0,0,.07v.07c-.07.33-.18.82-.28,1.44-.55,2.66-.59,4.55-.11,5.75l-6.52-1.45a10.1,10.1,0,0,1,0-1.57v-.06a13.08,13.08,0,0,1,.31-1.91l.05-.21c.09-.42.19-.85.35-1.38.08-.37.15-.66.2-.87s.07-.28.08-.35a6.37,6.37,0,0,0,.1-3.8,3,3,0,0,0-2.4-1.64l-1.33-.28a.32.32,0,0,0-.39.25l-2.34,10.66-5.7-1.27,6-26.82,6.88,1.55a25.6,25.6,0,0,1,5,1.45,5.56,5.56,0,0,1,2.21,1.59,5.77,5.77,0,0,1,1.2,2.63,8.41,8.41,0,0,1-.18,3.33A8.86,8.86,0,0,1,129.17,256.32Zm-4.74-7.14a4.56,4.56,0,0,0-2.83-1.49,1,1,0,0,0-.25-.05l-.17,0-.23,0-.14,0a.33.33,0,0,0-.26,0,.36.36,0,0,0-.16.22l-1.51,6.69a.31.31,0,0,0,.06.28.32.32,0,0,0,.26.12.78.78,0,0,1,.31.09l0,0a2.66,2.66,0,0,1,.36.09h0a7.5,7.5,0,0,0,1.53.19,3.38,3.38,0,0,0,1.71-.41,4.13,4.13,0,0,0,1.58-2.73A3.54,3.54,0,0,0,124.43,249.18ZM174.85,43.83l5.09,2.25,1.92-4.27c1-2.27,1.81-4.31,2.51-6.21.86-2.25,1.64-4.44,2.37-6.72a.34.34,0,0,1,.39-.22.33.33,0,0,1,.25.36L185,48.36l6.1,2.72,11.79-26.51-5.05-2.25-1.74,3.95c-.63,1.36-1.33,3.07-2.15,5.24s-1.81,4.78-2.77,7.48a.33.33,0,0,1-.64-.15L192.72,20l-6.07-2.68Zm-105-12.66-5.64,3.52,20.87,21.2,6.4-4L81.69,23.75l-5.61,3.52L82,41.67c.36.86,1.26,2.73,2.59,5.45l.15.39a.33.33,0,0,1-.56.32c-.79-1-1.57-1.95-2.34-2.87s-1.31-1.61-1.78-2.11ZM264.79,133l.25,0,.18,0h.06c3.07-.42,5.2-1.42,6.52-3s1.75-3.78,1.37-6.62a10.35,10.35,0,0,0-1.6-4.51,7.78,7.78,0,0,0-3.22-2.69,10.79,10.79,0,0,0-4-.66,51,51,0,0,0-7.11.61,47.11,47.11,0,0,0-8.72,1.79,8.78,8.78,0,0,0-3.75,2.45,7.87,7.87,0,0,0-1.49,2.8,8.75,8.75,0,0,0-.2,3.29,7,7,0,0,0,1,2.6,6.22,6.22,0,0,0,2,1.92.31.31,0,0,1,.14.31.3.3,0,0,1-.22.27l-1.54.5.57,4.11,15.47-2.14-1.24-8.71-4.46.63.32,2.38a.33.33,0,0,1-.26.36c-.19,0-.37.08-.59.11l-.22,0-.64.11a8.57,8.57,0,0,1-3.92-.13,2.48,2.48,0,0,1-1.61-2.14,2.18,2.18,0,0,1,1.17-2.41c.84-.5,2.93-1,6.2-1.41l2-.28,2.88-.44a23.76,23.76,0,0,1,6.45-.32,2.38,2.38,0,0,1,1.88,2.08,2.23,2.23,0,0,1-1,2.26,9.62,9.62,0,0,1-3.66,1.1h0l.81,5.87ZM116.47,12l7.41-.9a28.94,28.94,0,0,1,5.51-.32,6.52,6.52,0,0,1,2.77.82,6.12,6.12,0,0,1,2.12,2.17,10.74,10.74,0,0,1,1,3.42,8.9,8.9,0,0,1-.34,4.23,6.94,6.94,0,0,1-2.31,3,.33.33,0,0,0-.12.32.31.31,0,0,0,.22.25c2.1.65,3.43,2.67,3.95,6v.11c.06.25.11.61.17,1.06l.08.54c.41,2.85,1.05,4.74,1.95,5.73l-7.06.89a9.73,9.73,0,0,1-.51-1.6,19.1,19.1,0,0,1-.39-2.13c0-.28-.07-.61-.1-1s-.05-.47-.07-.71c0-.69-.08-1.13-.11-1.35a7.31,7.31,0,0,0-1.24-3.79,3.29,3.29,0,0,0-3-.78l-1.44.18a.3.3,0,0,0-.21.12.31.31,0,0,0-.07.24L126.17,40l-6.18.75Zm6.72,4,.9,7.2a.33.33,0,0,0,.15.24.37.37,0,0,0,.18.05l.1,0a1.43,1.43,0,0,1,.33,0h.05a2.57,2.57,0,0,1,.42,0A4.56,4.56,0,0,0,128.45,22a4.18,4.18,0,0,0,.61-3.28,3.67,3.67,0,0,0-1.37-2.82,5.15,5.15,0,0,0-3.34-.49l-.1,0h-.11l-.22,0-.09,0a2.39,2.39,0,0,1-.31,0,.33.33,0,0,0-.25.11A.37.37,0,0,0,123.19,16ZM232.3,45.06a10.76,10.76,0,0,0-4.05-2.48,7.54,7.54,0,0,0-4.21-.07,9.87,9.87,0,0,0-3.55,2,51.51,51.51,0,0,0-5.19,5,46.27,46.27,0,0,0-5.6,6.85,8.26,8.26,0,0,0-1.36,4.26,7.18,7.18,0,0,0,.58,3.11,7.75,7.75,0,0,0,1.9,2.66A6.21,6.21,0,0,0,216,68.11a.33.33,0,0,1,.31.16.32.32,0,0,1,0,.35l-.89,1.32,3.05,2.86,10.64-11.44-6.39-6-3.08,3.3,1.74,1.61a.34.34,0,0,1,0,.45l-.07.08a4.71,4.71,0,0,1-.35.41l-.19.21-.42.44a7.89,7.89,0,0,1-3.09,2.35,2.5,2.5,0,0,1-2.59-.65A2.2,2.2,0,0,1,214,61c.34-.92,1.67-2.61,4-5l3.39-3.63c2.23-2.42,3.84-3.86,4.78-4.29a2.34,2.34,0,0,1,2.77.41,2.16,2.16,0,0,1,.63,2.37A8.88,8.88,0,0,1,227.4,54l0,0,4.36,4,.17-.17,0,0a1.2,1.2,0,0,0,.2-.18,1.54,1.54,0,0,1,.19-.17c2.05-2.23,3.09-4.4,3.09-6.45S234.36,47,232.3,45.06Zm.17,24.07a58.07,58.07,0,0,0-5.62,4.47,10,10,0,0,0-2.13,2.85,6.3,6.3,0,0,0-.48,3.84,11.11,11.11,0,0,0,2.07,4.3,11.24,11.24,0,0,0,3.7,3.57,6.13,6.13,0,0,0,4,.72,8.49,8.49,0,0,0,2.71-.83,31.27,31.27,0,0,0,4-2.6l15.07-10.93-3.68-5L237.33,80.22c-2.49,1.78-3.88,2.58-4.65,2.69a2.26,2.26,0,0,1-2.29-1,2.35,2.35,0,0,1-.32-2.46c.34-.71,1.58-1.83,4-3.62l14.78-10.75-3.76-5.12Zm24.5,89a4.75,4.75,0,1,0,4.78,4.75A4.75,4.75,0,0,0,257,158.08ZM187,258.94a9.17,9.17,0,0,0,2.3,2.51,6,6,0,0,0,3.48,1.17,10.57,10.57,0,0,0,4.36-1.16,11.49,11.49,0,0,0,4-2.83,5.71,5.71,0,0,0,1.37-3.55,7.42,7.42,0,0,0-.31-2.63,34.45,34.45,0,0,0-1.65-4.2l-7.45-15.94-5.31,2.46,7.31,15.69a15,15,0,0,1,1.65,4.78,2.21,2.21,0,0,1-1.41,2,2.18,2.18,0,0,1-2.35-.15c-.62-.49-1.49-2-2.62-4.41L183.05,237l-5.42,2.53,6.23,13.42A50.4,50.4,0,0,0,187,258.94ZM234.39,96.7l2.1,5.19,4.34-1.75c2.07-.87,4.13-1.78,6.1-2.7s4.22-2,6.39-3.23a.33.33,0,0,1,.43.11.31.31,0,0,1-.07.43l-15.11,12.31,2.49,6.2L268,102.38l-2.06-5.11-4,1.6c-1.43.57-3.17,1.33-5.17,2.26-2.35,1.08-4.77,2.25-7.19,3.49a.32.32,0,0,1-.42-.11.32.32,0,0,1,.06-.43L263.77,92l-2.48-6.2Zm-145,152.76a.24.24,0,0,1,.08-.09l13.3-10.54-5.56-3.2-6.63,6.17a.3.3,0,0,1-.38,0,.32.32,0,0,1-.16-.35l2-8.8-5.52-3.17-2.38,16.77a.36.36,0,0,1,0,.11l-5.78,10,5.27,3.06ZM211.32,224.9a.3.3,0,0,1,.22-.08h0a.27.27,0,0,1,.22.11l14.66,16.85,4.47-3.89L216.26,221a.32.32,0,0,1,0-.46l3.93-3.42-3.14-3.61-12.64,10.94,3.17,3.65Zm33.94-23.15,9.62,6,3.08-4.91-23.28-14.52-3.07,4.88,8.72,5.44a.33.33,0,0,1,.11.45l-2.78,4.5a.34.34,0,0,1-.2.15.31.31,0,0,1-.25,0l-8.76-5.47-3.11,5,23.28,14.56,3.11-5-9.59-6a.32.32,0,0,1-.1-.45l2.77-4.46a.37.37,0,0,1,.2-.15A.35.35,0,0,1,245.26,201.75ZM33.58,65.8,56.15,84.07l9.74-12-4.17-3.4-5.63,6.94a.33.33,0,0,1-.46,0l-5-4.07a.33.33,0,0,1-.05-.46L55.7,64.7l-4.1-3.33-5.16,6.37a.32.32,0,0,1-.46.05l-4.25-3.42a.34.34,0,0,1-.12-.22.31.31,0,0,1,.08-.24L47.31,57l-4-3.22Zm132.23,205-.64-5-8.35,1.08a.34.34,0,0,1-.37-.29l-.79-6.08a.34.34,0,0,1,.07-.24.32.32,0,0,1,.22-.13l7.7-1-.64-4.93-7.7,1a.34.34,0,0,1-.24-.06.36.36,0,0,1-.13-.22l-.65-5.15a.34.34,0,0,1,.29-.37l8.35-1.07-.6-4.75-14.51,1.86,3.48,27.21ZM28.34,74.57,25.18,80l25.14,14.5,3.12-5.44ZM20.66,92.16a5.81,5.81,0,0,1,3.45-1.33,11.82,11.82,0,0,1,4.58.7c2.81,1,4.61,2.42,5.5,4.34s.92,4.32,0,7.09l-.79,2.34a.33.33,0,0,0,.2.42L44,109.28l-2,6-27.43-9.47,2.13-6.14a29.66,29.66,0,0,1,2.1-5.1A7.64,7.64,0,0,1,20.66,92.16Zm.65,9.31,7,2.45.1,0a.35.35,0,0,0,.28-.15l.11-.2a.75.75,0,0,1,.07-.12.49.49,0,0,0,0-.11c0-.08.06-.18.1-.29s.05-.14.07-.22a4.12,4.12,0,0,0,.05-3.43,4.74,4.74,0,0,0-2.84-2,3.46,3.46,0,0,0-3.07.11,5.93,5.93,0,0,0-1.92,3l-.18.54A.32.32,0,0,0,21.31,101.47Zm5.19,66.11a4.75,4.75,0,1,0-4.79-4.75A4.75,4.75,0,0,0,26.5,167.58ZM70.27,59.83l-15-17.9-4.79,4L69.09,68.23l11.2-9.41-3.43-4.1-6.12,5.15a.36.36,0,0,1-.24.07A.34.34,0,0,1,70.27,59.83Zm72.5-21.29,15.43,1.07.39-5.36-8.89-.62a.32.32,0,0,1-.3-.35l.43-6.48a.34.34,0,0,1,.11-.23.41.41,0,0,1,.24-.08l8.2.59.36-5.28-8.18-.59a.35.35,0,0,1-.22-.12.29.29,0,0,1-.08-.23l.4-5.44a.32.32,0,0,1,.35-.3l8.89.62.35-5.07-15.44-1.1Zm26.54,3.8,6.52-28.27-6.1-1.4-6.54,28.27ZM22.21,132.55a23.83,23.83,0,0,0,4.8-4.5l.25-.29c.12-.12.29-.31.48-.53l.13-.15c1.69-2,3.31-2.82,4.83-2.59a3.45,3.45,0,0,1,2.17,1,2.5,2.5,0,0,1,.59,2.11,2.31,2.31,0,0,1-1.46,2,7.81,7.81,0,0,1-3.66.13l-.54-.07L29,135.33c.28.07.5.11.66.14l.62.11c2.88.41,5.19,0,6.84-1.24s2.69-3.31,3.07-6.15a8.28,8.28,0,0,0-1.37-6.63c-1.31-1.69-3.42-2.74-6.27-3.12a10.39,10.39,0,0,0-2.76-.07,7.91,7.91,0,0,0-2.32.62c-1.08.48-2.57,1.82-4.42,4l-.57.68c-.14.17-.38.45-.73.84C20,126.65,18.4,127.6,17,127.41a3.11,3.11,0,0,1-1.93-.94,2.36,2.36,0,0,1-.58-2A2.23,2.23,0,0,1,16,122.67a5.89,5.89,0,0,1,3.16-.23h0l.78-5.52-.16,0-.19,0-.22,0h-.05a7.94,7.94,0,0,0-6.3,1.3c-1.59,1.25-2.55,3.2-2.94,6a8,8,0,0,0,1.27,6.2,7.75,7.75,0,0,0,5.51,3,9.71,9.71,0,0,0,2.85,0A7.48,7.48,0,0,0,22.21,132.55ZM59,243.67l-4.32-4,2.87-4.3a.32.32,0,0,0,0-.42l-3.78-3.49a.33.33,0,0,0-.43,0l-4,3.24-4.39-4,23-16.14,5.37,5Zm1-12.45a.36.36,0,0,0,.23.08h0a.33.33,0,0,0,.24-.14l6.95-10.26a.32.32,0,0,0,0-.42.33.33,0,0,0-.43,0l-9.72,7.7a.33.33,0,0,0-.12.25.3.3,0,0,0,.1.25ZM41.66,213.09a9.82,9.82,0,0,1-3.23,1.29,8.51,8.51,0,0,1-3.26,0A5.47,5.47,0,0,1,32.51,213a18,18,0,0,1-3-3.89l-4-6.35,23.28-14.55L52.43,194a33.68,33.68,0,0,1,2.2,4,7.13,7.13,0,0,1,.52,2.42,5.5,5.5,0,0,1-.78,3,7.37,7.37,0,0,1-2.49,2.44,6.35,6.35,0,0,1-3,1,8.35,8.35,0,0,1-3.46-.45.34.34,0,0,0-.31.06.33.33,0,0,0-.12.29,6,6,0,0,1-.65,3.59A7.57,7.57,0,0,1,41.66,213.09Zm1.19-13.73.22.36a4.38,4.38,0,0,0,2.37,2.12,2.56,2.56,0,0,0,.82.13,3.91,3.91,0,0,0,2.08-.7,3.21,3.21,0,0,0,1.59-2.22,4.13,4.13,0,0,0-.76-2.83,1.51,1.51,0,0,0-.27-.43l-.06-.08a.44.44,0,0,0-.08-.1.32.32,0,0,0-.4-.05L43,198.91A.32.32,0,0,0,42.85,199.36ZM39.51,202l-.25-.36a.34.34,0,0,0-.45-.09l-6.19,3.85a.38.38,0,0,0-.15.22.37.37,0,0,0,.06.25l.31.45a4.68,4.68,0,0,0,2.64,2.27,3.1,3.1,0,0,0,.85.11,4.49,4.49,0,0,0,2.39-.79,3.35,3.35,0,0,0,1.85-2.48A5.35,5.35,0,0,0,39.51,202ZM91.21,19.36l9,27.6L114.9,42.2l-1.64-5.14-8.51,2.78a.31.31,0,0,1-.25,0,.38.38,0,0,1-.16-.19l-2-6.16a.33.33,0,0,1,.21-.41l7.79-2.56-1.63-5L100.94,28a.34.34,0,0,1-.42-.21L98.83,22.6a.36.36,0,0,1,0-.25.3.3,0,0,1,.19-.16l8.48-2.75L106,14.6Z"/></svg>