<?xml version="1.0" encoding="utf-8"?>
<!-- Generator: Adobe Illustrator 16.0.0, SVG Export Plug-In . SVG Version: 6.00 Build 0)  -->
<!DOCTYPE svg PUBLIC "-//W3C//DTD SVG 1.1 Tiny//EN" "http://www.w3.org/Graphics/SVG/1.1/DTD/svg11-tiny.dtd">
<svg version="1.1" baseProfile="tiny" id="Ebene_1" xmlns="http://www.w3.org/2000/svg" xmlns:xlink="http://www.w3.org/1999/xlink"
	 x="0px" y="0px" width="640.326px" height="174.104px" viewBox="0 0 640.326 174.104" xml:space="preserve">
<g id="Abstände" display="none">
	<path display="inline" fill="#009ED4" d="M786.971,247.103c-18.695,0-28.044-5.842-28.044-18.11c0-7.012,2.922-11.686,8.764-15.19
		c5.843-2.921,14.606-4.674,26.875-4.674c20.448,0,30.381,5.843,30.381,18.11c0,7.012-3.506,12.271-10.517,15.19
		C806.836,245.935,797.488,247.103,786.971,247.103 M792.229,269.888c15.774,0,28.044-3.505,36.808-9.932
		c8.765-7.012,12.854-16.943,12.854-29.796c0-14.022-4.674-24.538-14.605-31.551c-9.348-7.595-22.784-11.101-39.729-11.101
		c-16.358,0-28.043,3.506-35.639,9.933c-7.596,7.012-11.102,16.942-11.102,30.38c0,14.022,4.09,23.954,12.854,31.551
		C762.433,265.8,775.286,269.888,792.229,269.888"/>
	<path display="inline" fill="#009ED4" d="M735.558,164.725c0,18.696-5.843,28.044-18.111,28.044
		c-7.011,0-11.685-2.922-15.189-8.764c-2.921-5.843-4.675-14.606-4.675-26.875c0-20.448,5.843-30.381,18.111-30.381
		c7.011,0,12.271,3.506,15.19,10.517C733.805,144.861,735.558,154.21,735.558,164.725 M757.76,159.468
		c0-15.774-3.506-28.044-9.934-36.808c-7.011-8.765-16.941-12.854-29.796-12.854c-14.021,0-23.954,4.674-31.549,14.605
		c-7.595,9.348-11.101,22.784-11.101,39.729c0,16.358,3.506,28.044,9.932,35.639c7.012,7.596,16.943,11.102,30.381,11.102
		c14.021,0,23.954-4.09,31.549-12.854C754.254,189.263,757.76,176.41,757.76,159.468"/>
	<path display="inline" fill="#009ED4" d="M472.65,439.903c0,18.695-5.843,28.043-18.111,28.043c-7.011,0-11.685-2.921-15.189-8.764
		c-2.921-5.842-4.674-14.605-4.674-26.875c0-20.448,5.843-30.38,18.11-30.38c7.012,0,12.271,3.505,15.19,10.516
		C470.897,420.038,472.65,428.802,472.65,439.903 M494.851,434.06c0-15.774-3.506-28.043-9.932-36.807
		c-7.012-8.765-16.943-12.854-29.798-12.854c-14.021,0-23.952,4.674-31.549,14.605c-7.595,9.349-11.101,22.785-11.101,39.729
		c0,16.358,3.506,28.044,9.933,35.639c7.011,7.597,16.942,11.102,30.38,11.102c14.021,0,23.954-4.09,31.55-12.854
		C491.345,464.441,494.851,451.588,494.851,434.06"/>
	<path display="inline" fill="#009ED4" d="M54.918,212.049c18.696,0,28.044,5.843,28.044,18.112c0,7.011-2.921,11.685-8.764,15.188
		c-5.843,2.922-14.606,4.674-26.875,4.674c-20.448,0-30.381-5.842-30.381-18.11c0-7.012,3.506-12.27,10.517-15.189
		C35.054,213.218,44.403,212.049,54.918,212.049 M49.66,189.847c-15.773,0-28.044,3.506-36.808,9.933
		C4.09,206.207,0,216.138,0,229.576c0,14.021,4.674,23.953,14.605,31.549c9.348,7.596,22.785,11.101,39.729,11.101
		c16.358,0,28.044-3.505,35.64-9.932c7.595-7.011,11.101-16.943,11.101-30.381c0-14.021-4.09-23.953-12.854-31.55
		C79.456,193.353,66.604,189.847,49.66,189.847"/>
</g>
<g id="Ebene_1_1_">
	<g>
		<g>
			<g>
				<path fill="#6F6F6F" d="M414.813,103.995c-5.258-5.844-11.686-9.35-19.279-10.518v-1.169c5.842-1.752,10.517-5.258,14.605-9.348
					c4.09-4.674,6.427-10.517,6.427-16.358c0-7.596-2.921-13.438-8.765-17.526c-6.427-4.674-15.188-7.012-26.29-7.012
					c-12.854,0-21.616,0.584-25.707,2.338l-1.753,16.941c5.26-1.168,11.102-1.752,18.111-1.752c15.19,0,22.786,4.674,22.786,14.605
					c0,5.258-2.922,9.933-9.349,12.854c-7.012,2.921-15.189,4.674-25.122,4.674l-1.753,14.606c26.875,0,40.312,7.011,40.312,21.615
					c0,8.765-4.674,15.774-14.604,21.617c-9.349,5.258-21.617,8.765-37.393,9.934l2.337,15.188
					c23.37-1.168,42.065-7.011,55.503-17.526c11.686-8.764,17.527-19.279,17.527-31.55
					C422.409,116.263,420.072,109.253,414.813,103.995"/>
			</g>
		</g>
		<g>
			<g>
				<path fill="#6F6F6F" d="M466.227,78.872c7.011,0,12.269,2.337,16.357,7.596c3.505,4.674,5.258,9.932,5.258,16.357
					c0,5.844-1.753,11.102-4.674,15.19c-3.505,4.674-8.18,7.011-14.021,7.011c-12.854,0-19.864-12.854-19.864-39.145
					C453.958,81.209,459.215,78.872,466.227,78.872 M451.621,73.031h-1.169c2.922-25.123,18.111-39.146,45.571-42.065l-1.753-14.606
					c-44.402,2.338-66.021,27.461-66.021,76.536c0,16.358,4.09,29.212,12.854,37.392c7.596,7.596,16.942,11.101,28.044,11.101
					c12.853,0,22.784-4.674,30.38-13.438c7.012-7.595,10.517-17.525,10.517-28.043c0-9.933-2.921-18.11-8.764-24.537
					c-6.427-7.597-15.19-11.102-25.706-11.102C463.889,64.266,456.295,67.187,451.621,73.031"/>
			</g>
		</g>
		<g>
			<g>
				<path fill="#6F6F6F" d="M576.064,95.815c0,18.695-5.844,28.044-18.111,28.044c-7.011,0-11.686-2.922-15.19-8.764
					c-2.922-5.843-4.674-14.606-4.674-26.875c0-20.449,5.842-30.381,18.111-30.381c7.011,0,12.269,3.505,15.189,10.517
					C574.895,75.367,576.064,84.714,576.064,95.815 M598.849,89.972c0-15.773-3.507-28.043-9.934-36.807
					c-7.011-8.765-16.941-12.854-29.796-12.854c-14.021,0-24.538,4.674-31.549,14.606c-7.595,9.348-11.102,22.785-11.102,39.728
					c0,16.359,3.507,28.044,9.933,35.639c7.012,7.597,16.942,11.102,30.381,11.102c14.021,0,23.954-4.089,31.549-12.854
					C594.759,119.769,598.849,106.916,598.849,89.972"/>
			</g>
		</g>
		<g>
			<g>
				<path fill="#6F6F6F" d="M629.229,22.785c0,3.506-1.168,7.011-4.089,9.933c-2.923,2.921-6.428,4.089-11.102,4.089
					c-4.09,0-7.011-1.168-9.348-3.505c-2.338-2.337-3.506-5.259-3.506-8.764c0-3.506,1.168-7.011,4.09-9.934
					c2.337-2.921,6.427-4.089,11.101-4.089c4.09,0,7.012,1.168,9.349,3.505S629.229,19.281,629.229,22.785 M639.746,22.201
					c0-5.844-1.753-11.102-5.842-15.774C629.814,1.753,624.555,0,617.545,0c-8.764,0-15.189,2.337-19.864,7.595
					c-4.674,5.259-7.011,11.102-7.011,17.527s1.753,11.685,5.843,15.773c4.091,4.675,9.349,7.012,16.358,7.012
					c8.18,0,15.19-2.337,19.864-7.596C637.409,34.469,639.746,28.628,639.746,22.201"/>
			</g>
		</g>
		<g>
			<g>
				<path fill="#EC6608" d="M135.547,86.467c-2.922-32.134-4.09-54.335-4.09-66.604H96.986c0,6.427-4.09,21.615-12.854,44.401
					c-8.18,22.785-12.854,37.976-12.854,44.402H70.11c0-6.428-3.506-21.033-11.102-44.402
					c-7.595-22.786-11.101-37.976-11.101-44.401H12.853c0,7.595-2.337,29.212-6.427,63.098C2.337,117.432,0,135.543,0,137.296
					h23.954c0-7.597,0.584-23.954,2.337-49.076c1.168-24.539,2.337-40.896,2.337-48.492h1.168
					c1.169,7.596,2.922,15.189,5.259,22.785c2.337,7.595,6.428,21.032,13.438,40.312c7.011,19.28,10.516,30.382,10.516,34.472
					h19.864c0-3.506,3.506-15.19,10.517-33.888c7.012-19.278,12.27-33.302,14.606-43.232c2.337-9.933,4.089-16.357,4.674-19.864
					h0.584c0,5.844,0.584,21.032,1.753,45.57c1.168,24.539,1.752,41.48,1.752,51.998h26.291
					C139.636,135.544,138.468,118.6,135.547,86.467"/>
			</g>
		</g>
		<g>
			<g>
				<path fill="#EC6608" d="M206.825,84.714l-37.977,0.584c2.337-14.604,8.765-21.617,19.863-21.617
					C200.982,63.681,206.825,70.694,206.825,84.714 M227.857,85.298c0-11.101-2.922-19.864-9.349-26.875
					s-15.773-10.517-28.628-10.517c-14.021,0-25.122,4.674-32.718,14.021c-7.595,9.348-11.686,20.448-11.686,33.302
					c0,12.27,4.091,22.785,12.271,31.549c8.179,8.765,20.448,12.854,35.639,12.854c12.27,0,22.785-1.753,30.964-4.674l1.753-17.527
					c-9.932,2.921-19.863,4.09-28.628,4.09c-8.179,0-14.604-2.337-19.863-7.012c-5.259-4.674-8.18-9.933-8.764-16.942l58.425-1.169
					C227.857,92.894,227.857,88.804,227.857,85.298"/>
			</g>
		</g>
		<g>
			<g>
				<path fill="#EC6608" d="M298.55,116.847c-3.506,4.09-9.933,6.427-18.696,6.427c-6.427,0-11.685-2.921-15.773-8.179
					c-3.505-5.259-5.842-12.271-5.842-19.864c0-8.764,1.752-15.774,5.842-21.616c4.09-5.844,9.933-8.765,17.527-8.765
					c5.843,0,10.517,1.168,15.189,4.09C298.55,81.794,298.55,97.568,298.55,116.847 M319.583,70.694
					c0-26.291,0.584-46.739,1.168-60.763l-25.706,0.585c1.169,14.605,2.337,28.627,2.337,42.649h-1.168
					c-4.09-2.922-10.517-4.674-19.28-4.674c-13.438,0-23.369,4.674-30.965,14.604c-7.595,9.934-11.101,21.033-11.101,34.471
					c0,11.686,3.506,21.617,9.933,29.796c7.011,8.181,15.774,12.271,27.459,12.271c10.518,0,18.695-2.922,25.122-8.765h1.169
					c0,2.338,0,4.675,0.584,6.428l21.616-0.585C320.167,119.769,319.583,96.984,319.583,70.694"/>
			</g>
		</g>
	</g>
</g>
</svg>
