<?xml version="1.0" encoding="UTF-8" standalone="no"?>
<!-- Created with Inkscape (http://www.inkscape.org/) by Marsupilami -->
<svg
   xmlns:svg="http://www.w3.org/2000/svg"
   xmlns="http://www.w3.org/2000/svg"
   version="1.0"
   width="1024"
   height="272"
   viewBox="0 0 106.59069 28.299311"
   id="svg2769">
  <defs
     id="defs2771" />
  <g
     transform="translate(-272.42843,-519.29206)"
     id="layer1">
    <path
       d="M 91.40625,0 L 91.53125,19.53125 C 91.53125,24.77727 96.500001,26.937499 96.5,26.9375 C 102.40284,29.01815 106.46875,27 106.46875,27 L 106.46875,19.6875 C 104.18451,22.03839 102.21875,21.500001 102.21875,21.5 C 99.80055,21.43279 98.937502,19.0625 98.9375,19.0625 L 98.9375,13.96875 L 106.59375,13.96875 L 106.59375,8.0625 L 99.125,8.0625 L 99.125,0 L 91.40625,0 z M 13.1875,7.4375 C 10.6706,7.4375 8.67112,8.3575504 7.03125,10.53125 L 6.9375,10.53125 L 6.9375,8.09375 L 0,8.09375 L 0,27.65625 L 6.9375,27.65625 L 6.9375,18.3125 C 6.9375,16.13879 6.9432904,12.8125 10.03125,12.8125 C 13.12015,12.8125 13.125,16.13879 13.125,18.3125 L 13.125,27.65625 L 20.0625,27.65625 L 20.0625,18.3125 C 20.0625,15.98652 20.172359,12.96875 23.375,12.96875 C 26.31115,12.96875 26.218751,16.29295 26.21875,18.3125 L 26.21875,27.65625 L 33.1875,27.65625 L 33.1875,15.1875 C 33.1875,10.68781 31.45672,7.4374999 26.5,7.4375 C 23.83082,7.4375 21.20982,8.7482604 19.875,11.1875 C 18.4645,8.59598 16.00897,7.4374999 13.1875,7.4375 z M 43.8125,7.4375 C 38.01729,7.4375 34.000001,12.23959 34,17.84375 C 34,23.44884 38.07932,28.312499 43.875,28.3125 C 46.16207,28.3125 48.560629,27.412629 49.78125,25.46875 L 49.875,25.46875 L 49.875,27.65625 L 56.78125,27.65625 L 56.8125,27.65625 L 65.875,27.65625 L 70.09375,22.96875 L 74.28125,27.65625 L 83.40625,27.65625 L 74.625,17.90625 L 83.40625,8.09375 L 74.4375,8.09375 L 70.09375,12.90625 L 65.75,8.09375 L 56.8125,8.09375 L 49.875,8.09375 L 49.875,10 C 48.42549,8.2836 46.061971,7.4374998 43.8125,7.4375 z M 83.46875,8.09375 L 83.46875,27.65625 L 90.40625,27.65625 L 90.40625,8.09375 L 83.46875,8.09375 z M 56.8125,8.125 L 65.5625,17.90625 L 56.8125,27.625 L 56.8125,8.125 z M 45.625,13.46875 C 48.44599,13.46875 50.093752,15.47382 50.09375,17.875 C 50.09375,20.35231 48.445991,22.281249 45.625,22.28125 C 42.804,22.28125 41.187499,20.35231 41.1875,17.875 C 41.1875,15.47382 42.804001,13.46875 45.625,13.46875 z "
       transform="translate(272.42843,519.29206)"
       style="fill:#2056ae;fill-opacity:1;fill-rule:nonzero;stroke:none"
       id="path2611" />
  </g>
</svg>
