<?xml version="1.0" encoding="utf-8"?>
<!-- Generator: Adobe Illustrator 25.2.1, SVG Export Plug-In . SVG Version: 6.00 Build 0)  -->
<svg version="1.1" id="Ebene_1" xmlns="http://www.w3.org/2000/svg" xmlns:xlink="http://www.w3.org/1999/xlink" x="0px" y="0px"
	 viewBox="0 0 1685.9 1080" style="enable-background:new 0 0 1685.9 1080;" xml:space="preserve">
<style type="text/css">
	.st0{fill:none;}
	.st1{clip-path:url(#SVGID_2_);}
	.st2{fill:#262626;}
	.st3{clip-path:url(#SVGID_4_);}
	.st4{clip-path:url(#SVGID_6_);}
	.st5{clip-path:url(#SVGID_8_);}
	.st6{clip-path:url(#SVGID_10_);}
	.st7{fill:url(#SVGID_11_);}
</style>
<pattern  y="1080" width="1920" height="1408.7" patternUnits="userSpaceOnUse" id="SVGID_11_4" viewBox="960 -1728.9 1920 1408.7" style="overflow:visible;">
	<g>
		<rect x="960" y="-1728.9" class="st0" width="1920" height="1408.7"/>
		<g>
			<rect x="960" y="-1728.9" class="st0" width="1920" height="1408.7"/>
			<g>
				<rect x="960" y="-1728.9" class="st0" width="1920" height="1408.7"/>
				<rect x="960" y="-1728.9" class="st0" width="1920" height="1408.7"/>
				<g>
					<g>
						<g>
							<defs>
								<rect id="SVGID_1_" x="1920" y="-2049" width="1920" height="640.3"/>
							</defs>
							<clipPath id="SVGID_2_">
								<use xlink:href="#SVGID_1_"  style="overflow:visible;"/>
							</clipPath>
							<g class="st1">
								<polygon class="st2" points="1800,-1520.7 1800,-1496.7 2040,-1496.7 2040,-1520.7 								"/>
								<polygon class="st2" points="1800,-1696.7 1800,-1672.7 2040,-1672.7 2040,-1696.7 								"/>
								<polygon class="st2" points="2120,-1696.7 2120,-1672.7 2360,-1672.7 2360,-1696.7 								"/>
								<polygon class="st2" points="2120,-1696.7 2120,-1672.7 2360,-1672.7 2360,-1696.7 								"/>
								<polygon class="st2" points="1880,-1608.7 1880,-1584.7 2120,-1584.7 2120,-1608.7 								"/>
								<polygon class="st2" points="2200,-1608.7 2200,-1584.7 2440,-1584.7 2440,-1608.7 								"/>
								<polygon class="st2" points="2200,-1608.7 2200,-1584.7 2440,-1584.7 2440,-1608.7 								"/>
								<polygon class="st2" points="2520,-1608.7 2520,-1584.7 2760,-1584.7 2760,-1608.7 								"/>
								<polygon class="st2" points="2520,-1608.7 2520,-1584.7 2760,-1584.7 2760,-1608.7 								"/>
								<polygon class="st2" points="2840,-1608.7 2840,-1584.7 3080,-1584.7 3080,-1608.7 								"/>
								<polygon class="st2" points="2756.8,-1608.7 2756.8,-1584.7 2996.8,-1584.7 2996.8,-1608.7 								"/>
								<polygon class="st2" points="1880,-1432.7 1880,-1408.7 2120,-1408.7 2120,-1432.7 								"/>
								<polygon class="st2" points="2200,-1432.7 2200,-1408.7 2440,-1408.7 2440,-1432.7 								"/>
								<polygon class="st2" points="2200,-1432.7 2200,-1408.7 2440,-1408.7 2440,-1432.7 								"/>
								<polygon class="st2" points="2520,-1432.7 2520,-1408.7 2760,-1408.7 2760,-1432.7 								"/>
								<polygon class="st2" points="2520,-1432.7 2520,-1408.7 2760,-1408.7 2760,-1432.7 								"/>
								<polygon class="st2" points="2840,-1432.7 2840,-1408.7 3080,-1408.7 3080,-1432.7 								"/>
								<polygon class="st2" points="2840,-1432.7 2840,-1408.7 3080,-1408.7 3080,-1432.7 								"/>
							</g>
						</g>
					</g>
				</g>
				
					<text transform="matrix(1 0 0 -1 2558.1001 -1702.2998)" class="st2" style="font-family:'ProximaNova-Extrabld'; font-size:70px; letter-spacing:28;">OLDSCHDOD</text>
				
					<text transform="matrix(1 0 0 -1 2157.3901 -1524.5996)" class="st2" style="font-family:'ProximaNova-Extrabld'; font-size:50px; letter-spacing:20;">SPIE</text>
				
					<text transform="matrix(1 0 0 -1 2346.4399 -1524.5996)" class="st2" style="font-family:'ProximaNova-Extrabld'; font-size:50px; letter-spacing:15;">L</text>
				
					<text transform="matrix(1 0 0 -1 2388.7402 -1524.5996)" class="st2" style="font-family:'ProximaNova-Extrabld'; font-size:50px; letter-spacing:20;">VEREINIGUNG</text>
				<g>
					<g>
						<g>
							<defs>
								<rect id="SVGID_3_" y="-2049" width="1920" height="640.3"/>
							</defs>
							<clipPath id="SVGID_4_">
								<use xlink:href="#SVGID_3_"  style="overflow:visible;"/>
							</clipPath>
							<g class="st3">
								<polygon class="st2" points="1160,-1520.7 1160,-1496.7 1400,-1496.7 1400,-1520.7 								"/>
								<polygon class="st2" points="1160,-1520.7 1160,-1496.7 1400,-1496.7 1400,-1520.7 								"/>
								<polygon class="st2" points="1480,-1520.7 1480,-1496.7 1720,-1496.7 1720,-1520.7 								"/>
								<polygon class="st2" points="1480,-1520.7 1480,-1496.7 1720,-1496.7 1720,-1520.7 								"/>
								<polygon class="st2" points="1800,-1520.7 1800,-1496.7 2040,-1496.7 2040,-1520.7 								"/>
								<polygon class="st2" points="1480,-1696.7 1480,-1672.7 1720,-1672.7 1720,-1696.7 								"/>
								<polygon class="st2" points="1480,-1696.7 1480,-1672.7 1720,-1672.7 1720,-1696.7 								"/>
								<polygon class="st2" points="1800,-1696.7 1800,-1672.7 2040,-1672.7 2040,-1696.7 								"/>
								<polygon class="st2" points="920,-1608.7 920,-1584.7 1160,-1584.7 1160,-1608.7 								"/>
								<polygon class="st2" points="836.8,-1608.7 836.8,-1584.7 1076.8,-1584.7 1076.8,-1608.7 								"/>
								<polygon class="st2" points="1240,-1608.7 1240,-1584.7 1480,-1584.7 1480,-1608.7 								"/>
								<polygon class="st2" points="1240,-1608.7 1240,-1584.7 1480,-1584.7 1480,-1608.7 								"/>
								<polygon class="st2" points="1560,-1608.7 1560,-1584.7 1800,-1584.7 1800,-1608.7 								"/>
								<polygon class="st2" points="1560,-1608.7 1560,-1584.7 1800,-1584.7 1800,-1608.7 								"/>
								<polygon class="st2" points="1880,-1608.7 1880,-1584.7 2120,-1584.7 2120,-1608.7 								"/>
								<polygon class="st2" points="920,-1432.7 920,-1408.7 1160,-1408.7 1160,-1432.7 								"/>
								<polygon class="st2" points="920,-1432.7 920,-1408.7 1160,-1408.7 1160,-1432.7 								"/>
								<polygon class="st2" points="1240,-1432.7 1240,-1408.7 1480,-1408.7 1480,-1432.7 								"/>
								<polygon class="st2" points="1240,-1432.7 1240,-1408.7 1800,-1408.7 1800,-1432.7 								"/>
								<polygon class="st2" points="1560,-1432.7 1560,-1408.7 1800,-1408.7 1800,-1432.7 								"/>
								<polygon class="st2" points="1560,-1432.7 1560,-1408.7 1800,-1408.7 1800,-1432.7 								"/>
								<polygon class="st2" points="1880,-1432.7 1880,-1408.7 2120,-1408.7 2120,-1432.7 								"/>
							</g>
						</g>
					</g>
				</g>
				
					<text transform="matrix(1 0 0 -1 638.1001 -1702.2998)" class="st2" style="font-family:'ProximaNova-Extrabld'; font-size:70px; letter-spacing:28;">OLDSCHDOD</text>
				
					<text transform="matrix(1 0 0 -1 237.3901 -1524.5996)" class="st2" style="font-family:'ProximaNova-Extrabld'; font-size:50px; letter-spacing:20;">SPIE</text>
				
					<text transform="matrix(1 0 0 -1 426.4399 -1524.5996)" class="st2" style="font-family:'ProximaNova-Extrabld'; font-size:50px; letter-spacing:15;">L</text>
				
					<text transform="matrix(1 0 0 -1 468.7402 -1524.5996)" class="st2" style="font-family:'ProximaNova-Extrabld'; font-size:50px; letter-spacing:20;">VEREINIGUNG</text>
				<g>
					<g>
						<g>
							<defs>
								<rect id="SVGID_5_" x="960" y="-1344.7" width="1920" height="640.3"/>
							</defs>
							<clipPath id="SVGID_6_">
								<use xlink:href="#SVGID_5_"  style="overflow:visible;"/>
							</clipPath>
							<g class="st4">
								<polygon class="st2" points="840,-816.3 840,-792.3 1080,-792.3 1080,-816.3 								"/>
								<polygon class="st2" points="2120,-816.3 2120,-792.3 2360,-792.3 2360,-816.3 								"/>
								<polygon class="st2" points="2120,-816.3 2120,-792.3 2360,-792.3 2360,-816.3 								"/>
								<polygon class="st2" points="2440,-816.3 2440,-792.3 2680,-792.3 2680,-816.3 								"/>
								<polygon class="st2" points="2440,-816.3 2440,-792.3 2680,-792.3 2680,-816.3 								"/>
								<polygon class="st2" points="2760,-816.3 2760,-792.3 3000,-792.3 3000,-816.3 								"/>
								<polygon class="st2" points="840,-992.3 840,-968.3 1080,-968.3 1080,-992.3 								"/>
								<polygon class="st2" points="1160,-992.3 1160,-968.3 1400,-968.3 1400,-992.3 								"/>
								<polygon class="st2" points="1160,-992.3 1160,-968.3 1400,-968.3 1400,-992.3 								"/>
								<polygon class="st2" points="2440,-992.3 2440,-968.3 2680,-968.3 2680,-992.3 								"/>
								<polygon class="st2" points="2440,-992.3 2440,-968.3 2680,-968.3 2680,-992.3 								"/>
								<polygon class="st2" points="2760,-992.3 2760,-968.3 3000,-968.3 3000,-992.3 								"/>
								<polygon class="st2" points="840,-1344.3 840,-1320.3 1080,-1320.3 1080,-1344.3 								"/>
								<polygon class="st2" points="1160,-1344.3 1160,-1320.3 1400,-1320.3 1400,-1344.3 								"/>
								<polygon class="st2" points="1160,-1344.3 1160,-1320.3 1720,-1320.3 1720,-1344.3 								"/>
								<polygon class="st2" points="1480,-1344.3 1480,-1320.3 1720,-1320.3 1720,-1344.3 								"/>
								<polygon class="st2" points="1480,-1344.3 1480,-1320.3 1720,-1320.3 1720,-1344.3 								"/>
								<polygon class="st2" points="1800,-1344.3 1800,-1320.3 2040,-1320.3 2040,-1344.3 								"/>
								<polygon class="st2" points="1800,-1344.3 1800,-1320.3 2040,-1320.3 2040,-1344.3 								"/>
								<polygon class="st2" points="2120,-1344.3 2120,-1320.3 2360,-1320.3 2360,-1344.3 								"/>
								<polygon class="st2" points="2120,-1344.3 2120,-1320.3 2480,-1320.3 2480,-1344.3 								"/>
								<polygon class="st2" points="2440,-1344.3 2440,-1320.3 2680,-1320.3 2680,-1344.3 								"/>
								<polygon class="st2" points="2440,-1344.3 2440,-1320.3 2680,-1320.3 2680,-1344.3 								"/>
								<polygon class="st2" points="2760,-1344.3 2760,-1320.3 3000,-1320.3 3000,-1344.3 								"/>
								<polygon class="st2" points="920,-904.3 920,-880.3 1160,-880.3 1160,-904.3 								"/>
								<polygon class="st2" points="1240,-904.3 1240,-880.3 1480,-880.3 1480,-904.3 								"/>
								<polygon class="st2" points="1240,-904.3 1240,-880.3 1480,-880.3 1480,-904.3 								"/>
								<polygon class="st2" points="1560,-904.3 1560,-880.3 1800,-880.3 1800,-904.3 								"/>
								<polygon class="st2" points="1560,-904.3 1560,-880.3 1800,-880.3 1800,-904.3 								"/>
								<polygon class="st2" points="1880,-904.3 1880,-880.3 2120,-880.3 2120,-904.3 								"/>
								<polygon class="st2" points="1796.8,-904.3 1796.8,-880.3 2036.8,-880.3 2036.8,-904.3 								"/>
								<polygon class="st2" points="2200,-904.3 2200,-880.3 2440,-880.3 2440,-904.3 								"/>
								<polygon class="st2" points="2200,-904.3 2200,-880.3 2440,-880.3 2440,-904.3 								"/>
								<polygon class="st2" points="2520,-904.3 2520,-880.3 2760,-880.3 2760,-904.3 								"/>
								<polygon class="st2" points="2520,-904.3 2520,-880.3 2760,-880.3 2760,-904.3 								"/>
								<polygon class="st2" points="2840,-904.3 2840,-880.3 3080,-880.3 3080,-904.3 								"/>
								<polygon class="st2" points="840,-1168.3 840,-1144.3 1080,-1144.3 1080,-1168.3 								"/>
								<polygon class="st2" points="1160,-1168.3 1160,-1144.3 1400,-1144.3 1400,-1168.3 								"/>
								<polygon class="st2" points="1160,-1168.3 1160,-1144.3 1400,-1144.3 1400,-1168.3 								"/>
								<polygon class="st2" points="1480,-1168.3 1480,-1144.3 1720,-1144.3 1720,-1168.3 								"/>
								<polygon class="st2" points="1480,-1168.3 1480,-1144.3 1720,-1144.3 1720,-1168.3 								"/>
								<polygon class="st2" points="1800,-1168.3 1800,-1144.3 2040,-1144.3 2040,-1168.3 								"/>
								<polygon class="st2" points="1800,-1168.3 1800,-1144.3 2040,-1144.3 2040,-1168.3 								"/>
								<polygon class="st2" points="2120,-1168.3 2120,-1144.3 2360,-1144.3 2360,-1168.3 								"/>
								<polygon class="st2" points="2120,-1168.3 2120,-1144.3 2360,-1144.3 2360,-1168.3 								"/>
								<polygon class="st2" points="2440,-1168.3 2440,-1144.3 2680,-1144.3 2680,-1168.3 								"/>
								<polygon class="st2" points="2440,-1168.3 2440,-1144.3 2680,-1144.3 2680,-1168.3 								"/>
								<polygon class="st2" points="2760,-1168.3 2760,-1144.3 3000,-1144.3 3000,-1168.3 								"/>
								<polygon class="st2" points="920,-1256.3 920,-1232.3 1160,-1232.3 1160,-1256.3 								"/>
								<polygon class="st2" points="1240,-1256.3 1240,-1232.3 1480,-1232.3 1480,-1256.3 								"/>
								<polygon class="st2" points="1560,-1256.3 1560,-1232.3 1800,-1232.3 1800,-1256.3 								"/>
								<polygon class="st2" points="1560,-1256.3 1560,-1232.3 2440,-1232.3 2440,-1256.3 								"/>
								<polygon class="st2" points="1880,-1256.3 1880,-1232.3 2120,-1232.3 2120,-1256.3 								"/>
								<polygon class="st2" points="1880,-1256.3 1880,-1232.3 2120,-1232.3 2120,-1256.3 								"/>
								<polygon class="st2" points="2200,-1256.3 2200,-1232.3 2440,-1232.3 2440,-1256.3 								"/>
								<polygon class="st2" points="2200,-1256.3 2200,-1232.3 2440,-1232.3 2440,-1256.3 								"/>
								<polygon class="st2" points="2840,-1256.3 2840,-1232.3 3080,-1232.3 3080,-1256.3 								"/>
								<polygon class="st2" points="920,-1080.3 920,-1056.3 1160,-1056.3 1160,-1080.3 								"/>
								<polygon class="st2" points="1240,-1080.3 1240,-1056.3 1480,-1056.3 1480,-1080.3 								"/>
								<polygon class="st2" points="1240,-1080.3 1240,-1056.3 1480,-1056.3 1480,-1080.3 								"/>
								<polygon class="st2" points="1560,-1080.3 1560,-1056.3 1800,-1056.3 1800,-1080.3 								"/>
								<polygon class="st2" points="1240,-1080.3 1240,-1056.3 1800,-1056.3 1800,-1080.3 								"/>
								<polygon class="st2" points="1880,-1080.3 1880,-1056.3 2120,-1056.3 2120,-1080.3 								"/>
								<polygon class="st2" points="1880,-1080.3 1880,-1056.3 2200,-1056.3 2200,-1080.3 								"/>
								<polygon class="st2" points="2200,-1080.3 2200,-1056.3 2440,-1056.3 2440,-1080.3 								"/>
								<polygon class="st2" points="2200,-1080.3 2200,-1056.3 2440,-1056.3 2440,-1080.3 								"/>
								<polygon class="st2" points="2520,-1080.3 2520,-1056.3 2760,-1056.3 2760,-1080.3 								"/>
								<polygon class="st2" points="2520,-1080.3 2520,-1056.3 2760,-1056.3 2760,-1080.3 								"/>
								<polygon class="st2" points="2840,-1080.3 2840,-1056.3 3080,-1056.3 3080,-1080.3 								"/>
								<polygon class="st2" points="920,-728.3 920,-704.3 1160,-704.3 1160,-728.3 								"/>
								<polygon class="st2" points="1240,-728.3 1240,-704.3 1480,-704.3 1480,-728.3 								"/>
								<polygon class="st2" points="1240,-728.3 1240,-704.3 1480,-704.3 1480,-728.3 								"/>
								<polygon class="st2" points="1560,-728.3 1560,-704.3 1800,-704.3 1800,-728.3 								"/>
								<polygon class="st2" points="1560,-728.3 1560,-704.3 1800,-704.3 1800,-728.3 								"/>
								<polygon class="st2" points="1880,-728.3 1880,-704.3 2120,-704.3 2120,-728.3 								"/>
								<polygon class="st2" points="1880,-728.3 1880,-704.3 2120,-704.3 2120,-728.3 								"/>
								<polygon class="st2" points="2200,-728.3 2200,-704.3 2440,-704.3 2440,-728.3 								"/>
								<polygon class="st2" points="2200,-728.3 2200,-704.3 2760,-704.3 2760,-728.3 								"/>
								<polygon class="st2" points="2520,-728.3 2520,-704.3 2760,-704.3 2760,-728.3 								"/>
								<polygon class="st2" points="2520,-728.3 2520,-704.3 2760,-704.3 2760,-728.3 								"/>
								<polygon class="st2" points="2840,-728.3 2840,-704.3 3080,-704.3 3080,-728.3 								"/>
							</g>
						</g>
					</g>
				</g>
				
					<text transform="matrix(1 0 0 -1 1598.1001 -997.96)" class="st2" style="font-family:'ProximaNova-Extrabld'; font-size:70px; letter-spacing:28;">OLDSCHDOD</text>
				
					<text transform="matrix(1 0 0 -1 2501.8101 -1274.4707)" class="st2" style="font-family:'ProximaNova-Extrabld'; font-size:100px; letter-spacing:20;">1921</text>
				
					<text transform="matrix(1 0 0 -1 1197.3901 -820.2598)" class="st2" style="font-family:'ProximaNova-Extrabld'; font-size:50px; letter-spacing:20;">SPIE</text>
				
					<text transform="matrix(1 0 0 -1 1386.4399 -820.2598)" class="st2" style="font-family:'ProximaNova-Extrabld'; font-size:50px; letter-spacing:15;">L</text>
				
					<text transform="matrix(1 0 0 -1 1428.7402 -820.2598)" class="st2" style="font-family:'ProximaNova-Extrabld'; font-size:50px; letter-spacing:20;">VEREINIGUNG</text>
				<g>
					<g>
						<g>
							<defs>
								<rect id="SVGID_7_" x="1920" y="-640.3" width="1920" height="640.3"/>
							</defs>
							<clipPath id="SVGID_8_">
								<use xlink:href="#SVGID_7_"  style="overflow:visible;"/>
							</clipPath>
							<g class="st5">
								<polygon class="st2" points="1800,-640 1800,-616 2040,-616 2040,-640 								"/>
								<polygon class="st2" points="2120,-640 2120,-616 2360,-616 2360,-640 								"/>
								<polygon class="st2" points="2120,-640 2120,-616 2680,-616 2680,-640 								"/>
								<polygon class="st2" points="2440,-640 2440,-616 2680,-616 2680,-640 								"/>
								<polygon class="st2" points="2440,-640 2440,-616 2680,-616 2680,-640 								"/>
								<polygon class="st2" points="2760,-640 2760,-616 3000,-616 3000,-640 								"/>
								<polygon class="st2" points="2760,-640 2760,-616 3000,-616 3000,-640 								"/>
								<polygon class="st2" points="1800,-464 1800,-440 2040,-440 2040,-464 								"/>
								<polygon class="st2" points="2120,-464 2120,-440 2360,-440 2360,-464 								"/>
								<polygon class="st2" points="2120,-464 2120,-440 2360,-440 2360,-464 								"/>
								<polygon class="st2" points="2440,-464 2440,-440 2680,-440 2680,-464 								"/>
								<polygon class="st2" points="2440,-464 2440,-440 2680,-440 2680,-464 								"/>
								<polygon class="st2" points="2760,-464 2760,-440 3000,-440 3000,-464 								"/>
								<polygon class="st2" points="2760,-464 2760,-440 3000,-440 3000,-464 								"/>
								<polygon class="st2" points="1880,-552 1880,-528 2120,-528 2120,-552 								"/>
								<polygon class="st2" points="2200,-552 2200,-528 2440,-528 2440,-552 								"/>
								<polygon class="st2" points="2520,-552 2520,-528 2760,-528 2760,-552 								"/>
								<polygon class="st2" points="2520,-552 2520,-528 3400,-528 3400,-552 								"/>
								<polygon class="st2" points="2840,-552 2840,-528 3080,-528 3080,-552 								"/>
								<polygon class="st2" points="2840,-552 2840,-528 3080,-528 3080,-552 								"/>
								<polygon class="st2" points="1880,-376 1880,-352 2120,-352 2120,-376 								"/>
								<polygon class="st2" points="2200,-376 2200,-352 2440,-352 2440,-376 								"/>
								<polygon class="st2" points="2200,-376 2200,-352 2440,-352 2440,-376 								"/>
								<polygon class="st2" points="2520,-376 2520,-352 2760,-352 2760,-376 								"/>
								<polygon class="st2" points="2200,-376 2200,-352 2760,-352 2760,-376 								"/>
								<polygon class="st2" points="2840,-376 2840,-352 3080,-352 3080,-376 								"/>
								<polygon class="st2" points="2840,-376 2840,-352 3160,-352 3160,-376 								"/>
							</g>
						</g>
					</g>
				</g>
				
					<text transform="matrix(1 0 0 -1 2558.1001 -293.6201)" class="st2" style="font-family:'ProximaNova-Extrabld'; font-size:70px; letter-spacing:28;">OLDSCHDOD</text>
				<g>
					<g>
						<g>
							<defs>
								<rect id="SVGID_9_" y="-640.3" width="1920" height="640.3"/>
							</defs>
							<clipPath id="SVGID_10_">
								<use xlink:href="#SVGID_9_"  style="overflow:visible;"/>
							</clipPath>
							<g class="st6">
								<polygon class="st2" points="840,-640 840,-616 1080,-616 1080,-640 								"/>
								<polygon class="st2" points="840,-640 840,-616 1080,-616 1080,-640 								"/>
								<polygon class="st2" points="1160,-640 1160,-616 1400,-616 1400,-640 								"/>
								<polygon class="st2" points="1160,-640 1160,-616 1520,-616 1520,-640 								"/>
								<polygon class="st2" points="1480,-640 1480,-616 1720,-616 1720,-640 								"/>
								<polygon class="st2" points="1480,-640 1480,-616 1720,-616 1720,-640 								"/>
								<polygon class="st2" points="1800,-640 1800,-616 2040,-616 2040,-640 								"/>
								<polygon class="st2" points="840,-464 840,-440 1080,-440 1080,-464 								"/>
								<polygon class="st2" points="840,-464 840,-440 1080,-440 1080,-464 								"/>
								<polygon class="st2" points="1160,-464 1160,-440 1400,-440 1400,-464 								"/>
								<polygon class="st2" points="1160,-464 1160,-440 1400,-440 1400,-464 								"/>
								<polygon class="st2" points="1480,-464 1480,-440 1720,-440 1720,-464 								"/>
								<polygon class="st2" points="1480,-464 1480,-440 1720,-440 1720,-464 								"/>
								<polygon class="st2" points="1800,-464 1800,-440 2040,-440 2040,-464 								"/>
								<polygon class="st2" points="600,-552 600,-528 1480,-528 1480,-552 								"/>
								<polygon class="st2" points="920,-552 920,-528 1160,-528 1160,-552 								"/>
								<polygon class="st2" points="920,-552 920,-528 1160,-528 1160,-552 								"/>
								<polygon class="st2" points="1240,-552 1240,-528 1480,-528 1480,-552 								"/>
								<polygon class="st2" points="1240,-552 1240,-528 1480,-528 1480,-552 								"/>
								<polygon class="st2" points="1880,-552 1880,-528 2120,-528 2120,-552 								"/>
								<polygon class="st2" points="920,-376 920,-352 1160,-352 1160,-376 								"/>
								<polygon class="st2" points="920,-376 920,-352 1240,-352 1240,-376 								"/>
								<polygon class="st2" points="1240,-376 1240,-352 1480,-352 1480,-376 								"/>
								<polygon class="st2" points="1240,-376 1240,-352 1480,-352 1480,-376 								"/>
								<polygon class="st2" points="1560,-376 1560,-352 1800,-352 1800,-376 								"/>
								<polygon class="st2" points="1560,-376 1560,-352 1800,-352 1800,-376 								"/>
								<polygon class="st2" points="1880,-376 1880,-352 2120,-352 2120,-376 								"/>
							</g>
						</g>
					</g>
				</g>
				
					<text transform="matrix(1 0 0 -1 638.1001 -293.6201)" class="st2" style="font-family:'ProximaNova-Extrabld'; font-size:70px; letter-spacing:28;">OLDSCHDOD</text>
				
					<text transform="matrix(1 0 0 -1 1541.8101 -570.1299)" class="st2" style="font-family:'ProximaNova-Extrabld'; font-size:100px; letter-spacing:20;">1921</text>
			</g>
		</g>
	</g>
</pattern>
<g id="Ebene_2_1_">
	<g id="Ebene_1-2">
		
			<pattern  id="SVGID_11_" xlink:href="#SVGID_11_4" patternTransform="matrix(0.51 -2.000000e-02 5.000000e-02 -0.51 -11480.2422 -28364.5898)">
		</pattern>
		<rect class="st7" width="1685.9" height="1080"/>
	</g>
</g>
</svg>
