<?xml version="1.0" encoding="utf-8"?>
<!-- Generator: Adobe Illustrator 25.2.1, SVG Export Plug-In . SVG Version: 6.00 Build 0)  -->
<svg version="1.1" id="Ebene_1" xmlns="http://www.w3.org/2000/svg" xmlns:xlink="http://www.w3.org/1999/xlink" x="0px" y="0px"
	 viewBox="0 0 1685.9 1080" style="enable-background:new 0 0 1685.9 1080;" xml:space="preserve">
<style type="text/css">
	.st0{fill:none;}
	.st1{clip-path:url(#SVGID_2_);}
	.st2{fill:#141414;}
	.st3{clip-path:url(#SVGID_4_);}
	.st4{clip-path:url(#SVGID_6_);}
	.st5{clip-path:url(#SVGID_8_);}
	.st6{clip-path:url(#SVGID_10_);}
	.st7{fill:url(#SVGID_11_);}
</style>
<pattern  y="1080" width="1920" height="1408.7" patternUnits="userSpaceOnUse" id="SVGID_11_2" viewBox="960 -1728.8 1920 1408.7" style="overflow:visible;">
	<g>
		<rect x="960" y="-1728.8" class="st0" width="1920" height="1408.7"/>
		<g>
			<rect x="960" y="-1728.8" class="st0" width="1920" height="1408.7"/>
			<g>
				<rect x="960" y="-1728.8" class="st0" width="1920" height="1408.7"/>
				<g>
					<rect x="960" y="-1728.8" class="st0" width="1920" height="1408.7"/>
					<rect x="960" y="-1728.8" class="st0" width="1920" height="1408.7"/>
					<g>
						<g>
							<g>
								<g>
									<defs>
										<rect id="SVGID_1_" x="1920" y="-640.3" width="1920" height="640.3"/>
									</defs>
									<clipPath id="SVGID_2_">
										<use xlink:href="#SVGID_1_"  style="overflow:visible;"/>
									</clipPath>
									<g class="st1">
										<polygon class="st2" points="1800,-528.3 1800,-552.3 2040,-552.3 2040,-528.3 										"/>
										<polygon class="st2" points="1800,-352.3 1800,-376.3 2040,-376.3 2040,-352.3 										"/>
										<polygon class="st2" points="2120,-352.3 2120,-376.3 2360,-376.3 2360,-352.3 										"/>
										<polygon class="st2" points="2120,-352.3 2120,-376.3 2360,-376.3 2360,-352.3 										"/>
										<polygon class="st2" points="1880,-440.3 1880,-464.3 2120,-464.3 2120,-440.3 										"/>
										<polygon class="st2" points="2200,-440.3 2200,-464.3 2440,-464.3 2440,-440.3 										"/>
										<polygon class="st2" points="2200,-440.3 2200,-464.3 2440,-464.3 2440,-440.3 										"/>
										<polygon class="st2" points="2520,-440.3 2520,-464.3 2760,-464.3 2760,-440.3 										"/>
										<polygon class="st2" points="2520,-440.3 2520,-464.3 2760,-464.3 2760,-440.3 										"/>
										<polygon class="st2" points="2840,-440.3 2840,-464.3 3080,-464.3 3080,-440.3 										"/>
										<polygon class="st2" points="2756.8,-440.3 2756.8,-464.3 2996.8,-464.3 2996.8,-440.3 										"/>
										<polygon class="st2" points="1880,-616.3 1880,-640.3 2120,-640.3 2120,-616.3 										"/>
										<polygon class="st2" points="2200,-616.3 2200,-640.3 2440,-640.3 2440,-616.3 										"/>
										<polygon class="st2" points="2200,-616.3 2200,-640.3 2440,-640.3 2440,-616.3 										"/>
										<polygon class="st2" points="2520,-616.3 2520,-640.3 2760,-640.3 2760,-616.3 										"/>
										<polygon class="st2" points="2520,-616.3 2520,-640.3 2760,-640.3 2760,-616.3 										"/>
										<polygon class="st2" points="2840,-616.3 2840,-640.3 3080,-640.3 3080,-616.3 										"/>
										<polygon class="st2" points="2840,-616.3 2840,-640.3 3080,-640.3 3080,-616.3 										"/>
									</g>
								</g>
							</g>
						</g>
					</g>
					
						<text transform="matrix(1 0 0 1 2558.1001 -346.7002)" class="st2" style="font-family:'ProximaNova-Extrabld'; font-size:70px; letter-spacing:28;">OLDSCHDOD</text>
					
						<text transform="matrix(1 0 0 1 2157.3901 -524.4004)" class="st2" style="font-family:'ProximaNova-Extrabld'; font-size:50px; letter-spacing:20;">SPIE</text>
					
						<text transform="matrix(1 0 0 1 2346.4399 -524.4004)" class="st2" style="font-family:'ProximaNova-Extrabld'; font-size:50px; letter-spacing:15;">L</text>
					
						<text transform="matrix(1 0 0 1 2388.7402 -524.4004)" class="st2" style="font-family:'ProximaNova-Extrabld'; font-size:50px; letter-spacing:20;">VEREINIGUNG</text>
					<g>
						<g>
							<g>
								<g>
									<defs>
										<rect id="SVGID_3_" y="-640.3" width="1920" height="640.3"/>
									</defs>
									<clipPath id="SVGID_4_">
										<use xlink:href="#SVGID_3_"  style="overflow:visible;"/>
									</clipPath>
									<g class="st3">
										<polygon class="st2" points="1160,-528.3 1160,-552.3 1400,-552.3 1400,-528.3 										"/>
										<polygon class="st2" points="1160,-528.3 1160,-552.3 1400,-552.3 1400,-528.3 										"/>
										<polygon class="st2" points="1480,-528.3 1480,-552.3 1720,-552.3 1720,-528.3 										"/>
										<polygon class="st2" points="1480,-528.3 1480,-552.3 1720,-552.3 1720,-528.3 										"/>
										<polygon class="st2" points="1800,-528.3 1800,-552.3 2040,-552.3 2040,-528.3 										"/>
										<polygon class="st2" points="1480,-352.3 1480,-376.3 1720,-376.3 1720,-352.3 										"/>
										<polygon class="st2" points="1480,-352.3 1480,-376.3 1720,-376.3 1720,-352.3 										"/>
										<polygon class="st2" points="1800,-352.3 1800,-376.3 2040,-376.3 2040,-352.3 										"/>
										<polygon class="st2" points="920,-440.3 920,-464.3 1160,-464.3 1160,-440.3 										"/>
										<polygon class="st2" points="836.8,-440.3 836.8,-464.3 1076.8,-464.3 1076.8,-440.3 										"/>
										<polygon class="st2" points="1240,-440.3 1240,-464.3 1480,-464.3 1480,-440.3 										"/>
										<polygon class="st2" points="1240,-440.3 1240,-464.3 1480,-464.3 1480,-440.3 										"/>
										<polygon class="st2" points="1560,-440.3 1560,-464.3 1800,-464.3 1800,-440.3 										"/>
										<polygon class="st2" points="1560,-440.3 1560,-464.3 1800,-464.3 1800,-440.3 										"/>
										<polygon class="st2" points="1880,-440.3 1880,-464.3 2120,-464.3 2120,-440.3 										"/>
										<polygon class="st2" points="920,-616.3 920,-640.3 1160,-640.3 1160,-616.3 										"/>
										<polygon class="st2" points="920,-616.3 920,-640.3 1160,-640.3 1160,-616.3 										"/>
										<polygon class="st2" points="1240,-616.3 1240,-640.3 1480,-640.3 1480,-616.3 										"/>
										<polygon class="st2" points="1240,-616.3 1240,-640.3 1800,-640.3 1800,-616.3 										"/>
										<polygon class="st2" points="1560,-616.3 1560,-640.3 1800,-640.3 1800,-616.3 										"/>
										<polygon class="st2" points="1560,-616.3 1560,-640.3 1800,-640.3 1800,-616.3 										"/>
										<polygon class="st2" points="1880,-616.3 1880,-640.3 2120,-640.3 2120,-616.3 										"/>
									</g>
								</g>
							</g>
						</g>
					</g>
					
						<text transform="matrix(1 0 0 1 638.1001 -346.7002)" class="st2" style="font-family:'ProximaNova-Extrabld'; font-size:70px; letter-spacing:28;">OLDSCHDOD</text>
					
						<text transform="matrix(1 0 0 1 237.3901 -524.4004)" class="st2" style="font-family:'ProximaNova-Extrabld'; font-size:50px; letter-spacing:20;">SPIE</text>
					
						<text transform="matrix(1 0 0 1 426.4399 -524.4004)" class="st2" style="font-family:'ProximaNova-Extrabld'; font-size:50px; letter-spacing:15;">L</text>
					
						<text transform="matrix(1 0 0 1 468.7402 -524.4004)" class="st2" style="font-family:'ProximaNova-Extrabld'; font-size:50px; letter-spacing:20;">VEREINIGUNG</text>
					<g>
						<g>
							<g>
								<g>
									<defs>
										<rect id="SVGID_5_" x="960" y="-1344.6" width="1920" height="640.3"/>
									</defs>
									<clipPath id="SVGID_6_">
										<use xlink:href="#SVGID_5_"  style="overflow:visible;"/>
									</clipPath>
									<g class="st4">
										<polygon class="st2" points="840,-1232.7 840,-1256.7 1080,-1256.7 1080,-1232.7 										"/>
										<polygon class="st2" points="2120,-1232.7 2120,-1256.7 2360,-1256.7 2360,-1232.7 										"/>
										<polygon class="st2" points="2120,-1232.7 2120,-1256.7 2360,-1256.7 2360,-1232.7 										"/>
										<polygon class="st2" points="2440,-1232.7 2440,-1256.7 2680,-1256.7 2680,-1232.7 										"/>
										<polygon class="st2" points="2440,-1232.7 2440,-1256.7 2680,-1256.7 2680,-1232.7 										"/>
										<polygon class="st2" points="2760,-1232.7 2760,-1256.7 3000,-1256.7 3000,-1232.7 										"/>
										<polygon class="st2" points="840,-1056.7 840,-1080.7 1080,-1080.7 1080,-1056.7 										"/>
										<polygon class="st2" points="1160,-1056.7 1160,-1080.7 1400,-1080.7 1400,-1056.7 										"/>
										<polygon class="st2" points="1160,-1056.7 1160,-1080.7 1400,-1080.7 1400,-1056.7 										"/>
										<polygon class="st2" points="2440,-1056.7 2440,-1080.7 2680,-1080.7 2680,-1056.7 										"/>
										<polygon class="st2" points="2440,-1056.7 2440,-1080.7 2680,-1080.7 2680,-1056.7 										"/>
										<polygon class="st2" points="2760,-1056.7 2760,-1080.7 3000,-1080.7 3000,-1056.7 										"/>
										<polygon class="st2" points="840,-704.7 840,-728.7 1080,-728.7 1080,-704.7 										"/>
										<polygon class="st2" points="1160,-704.7 1160,-728.7 1400,-728.7 1400,-704.7 										"/>
										<polygon class="st2" points="1160,-704.7 1160,-728.7 1720,-728.7 1720,-704.7 										"/>
										<polygon class="st2" points="1480,-704.7 1480,-728.7 1720,-728.7 1720,-704.7 										"/>
										<polygon class="st2" points="1480,-704.7 1480,-728.7 1720,-728.7 1720,-704.7 										"/>
										<polygon class="st2" points="1800,-704.7 1800,-728.7 2040,-728.7 2040,-704.7 										"/>
										<polygon class="st2" points="1800,-704.7 1800,-728.7 2040,-728.7 2040,-704.7 										"/>
										<polygon class="st2" points="2120,-704.7 2120,-728.7 2360,-728.7 2360,-704.7 										"/>
										<polygon class="st2" points="2120,-704.7 2120,-728.7 2480,-728.7 2480,-704.7 										"/>
										<polygon class="st2" points="2440,-704.7 2440,-728.7 2680,-728.7 2680,-704.7 										"/>
										<polygon class="st2" points="2440,-704.7 2440,-728.7 2680,-728.7 2680,-704.7 										"/>
										<polygon class="st2" points="2760,-704.7 2760,-728.7 3000,-728.7 3000,-704.7 										"/>
										<polygon class="st2" points="920,-1144.7 920,-1168.7 1160,-1168.7 1160,-1144.7 										"/>
										<polygon class="st2" points="1240,-1144.7 1240,-1168.7 1480,-1168.7 1480,-1144.7 										"/>
										<polygon class="st2" points="1240,-1144.7 1240,-1168.7 1480,-1168.7 1480,-1144.7 										"/>
										<polygon class="st2" points="1560,-1144.7 1560,-1168.7 1800,-1168.7 1800,-1144.7 										"/>
										<polygon class="st2" points="1560,-1144.7 1560,-1168.7 1800,-1168.7 1800,-1144.7 										"/>
										<polygon class="st2" points="1880,-1144.7 1880,-1168.7 2120,-1168.7 2120,-1144.7 										"/>
										<polygon class="st2" points="1796.8,-1144.7 1796.8,-1168.7 2036.8,-1168.7 2036.8,-1144.7 										"/>
										<polygon class="st2" points="2200,-1144.7 2200,-1168.7 2440,-1168.7 2440,-1144.7 										"/>
										<polygon class="st2" points="2200,-1144.7 2200,-1168.7 2440,-1168.7 2440,-1144.7 										"/>
										<polygon class="st2" points="2520,-1144.7 2520,-1168.7 2760,-1168.7 2760,-1144.7 										"/>
										<polygon class="st2" points="2520,-1144.7 2520,-1168.7 2760,-1168.7 2760,-1144.7 										"/>
										<polygon class="st2" points="2840,-1144.7 2840,-1168.7 3080,-1168.7 3080,-1144.7 										"/>
										<polygon class="st2" points="840,-880.7 840,-904.7 1080,-904.7 1080,-880.7 										"/>
										<polygon class="st2" points="1160,-880.7 1160,-904.7 1400,-904.7 1400,-880.7 										"/>
										<polygon class="st2" points="1160,-880.7 1160,-904.7 1400,-904.7 1400,-880.7 										"/>
										<polygon class="st2" points="1480,-880.7 1480,-904.7 1720,-904.7 1720,-880.7 										"/>
										<polygon class="st2" points="1480,-880.7 1480,-904.7 1720,-904.7 1720,-880.7 										"/>
										<polygon class="st2" points="1800,-880.7 1800,-904.7 2040,-904.7 2040,-880.7 										"/>
										<polygon class="st2" points="1800,-880.7 1800,-904.7 2040,-904.7 2040,-880.7 										"/>
										<polygon class="st2" points="2120,-880.7 2120,-904.7 2360,-904.7 2360,-880.7 										"/>
										<polygon class="st2" points="2120,-880.7 2120,-904.7 2360,-904.7 2360,-880.7 										"/>
										<polygon class="st2" points="2440,-880.7 2440,-904.7 2680,-904.7 2680,-880.7 										"/>
										<polygon class="st2" points="2440,-880.7 2440,-904.7 2680,-904.7 2680,-880.7 										"/>
										<polygon class="st2" points="2760,-880.7 2760,-904.7 3000,-904.7 3000,-880.7 										"/>
										<polygon class="st2" points="920,-792.7 920,-816.7 1160,-816.7 1160,-792.7 										"/>
										<polygon class="st2" points="1240,-792.7 1240,-816.7 1480,-816.7 1480,-792.7 										"/>
										<polygon class="st2" points="1560,-792.7 1560,-816.7 1800,-816.7 1800,-792.7 										"/>
										<polygon class="st2" points="1560,-792.7 1560,-816.7 2440,-816.7 2440,-792.7 										"/>
										<polygon class="st2" points="1880,-792.7 1880,-816.7 2120,-816.7 2120,-792.7 										"/>
										<polygon class="st2" points="1880,-792.7 1880,-816.7 2120,-816.7 2120,-792.7 										"/>
										<polygon class="st2" points="2200,-792.7 2200,-816.7 2440,-816.7 2440,-792.7 										"/>
										<polygon class="st2" points="2200,-792.7 2200,-816.7 2440,-816.7 2440,-792.7 										"/>
										<polygon class="st2" points="2840,-792.7 2840,-816.7 3080,-816.7 3080,-792.7 										"/>
										<polygon class="st2" points="920,-968.7 920,-992.7 1160,-992.7 1160,-968.7 										"/>
										<polygon class="st2" points="1240,-968.7 1240,-992.7 1480,-992.7 1480,-968.7 										"/>
										<polygon class="st2" points="1240,-968.7 1240,-992.7 1480,-992.7 1480,-968.7 										"/>
										<polygon class="st2" points="1560,-968.7 1560,-992.7 1800,-992.7 1800,-968.7 										"/>
										<polygon class="st2" points="1240,-968.7 1240,-992.7 1800,-992.7 1800,-968.7 										"/>
										<polygon class="st2" points="1880,-968.7 1880,-992.7 2120,-992.7 2120,-968.7 										"/>
										<polygon class="st2" points="1880,-968.7 1880,-992.7 2200,-992.7 2200,-968.7 										"/>
										<polygon class="st2" points="2200,-968.7 2200,-992.7 2440,-992.7 2440,-968.7 										"/>
										<polygon class="st2" points="2200,-968.7 2200,-992.7 2440,-992.7 2440,-968.7 										"/>
										<polygon class="st2" points="2520,-968.7 2520,-992.7 2760,-992.7 2760,-968.7 										"/>
										<polygon class="st2" points="2520,-968.7 2520,-992.7 2760,-992.7 2760,-968.7 										"/>
										<polygon class="st2" points="2840,-968.7 2840,-992.7 3080,-992.7 3080,-968.7 										"/>
										<polygon class="st2" points="920,-1320.7 920,-1344.7 1160,-1344.7 1160,-1320.7 										"/>
										<polygon class="st2" points="1240,-1320.7 1240,-1344.7 1480,-1344.7 1480,-1320.7 										"/>
										<polygon class="st2" points="1240,-1320.7 1240,-1344.7 1480,-1344.7 1480,-1320.7 										"/>
										<polygon class="st2" points="1560,-1320.7 1560,-1344.7 1800,-1344.7 1800,-1320.7 										"/>
										<polygon class="st2" points="1560,-1320.7 1560,-1344.7 1800,-1344.7 1800,-1320.7 										"/>
										<polygon class="st2" points="1880,-1320.7 1880,-1344.7 2120,-1344.7 2120,-1320.7 										"/>
										<polygon class="st2" points="1880,-1320.7 1880,-1344.7 2120,-1344.7 2120,-1320.7 										"/>
										<polygon class="st2" points="2200,-1320.7 2200,-1344.7 2440,-1344.7 2440,-1320.7 										"/>
										<polygon class="st2" points="2200,-1320.7 2200,-1344.7 2760,-1344.7 2760,-1320.7 										"/>
										<polygon class="st2" points="2520,-1320.7 2520,-1344.7 2760,-1344.7 2760,-1320.7 										"/>
										<polygon class="st2" points="2520,-1320.7 2520,-1344.7 2760,-1344.7 2760,-1320.7 										"/>
										<polygon class="st2" points="2840,-1320.7 2840,-1344.7 3080,-1344.7 3080,-1320.7 										"/>
									</g>
								</g>
							</g>
						</g>
					</g>
					
						<text transform="matrix(1 0 0 1 1598.1001 -1051.04)" class="st2" style="font-family:'ProximaNova-Extrabld'; font-size:70px; letter-spacing:28;">OLDSCHDOD</text>
					
						<text transform="matrix(1 0 0 1 2501.8101 -774.5293)" class="st2" style="font-family:'ProximaNova-Extrabld'; font-size:100px; letter-spacing:20;">1921</text>
					
						<text transform="matrix(1 0 0 1 1197.3901 -1228.7402)" class="st2" style="font-family:'ProximaNova-Extrabld'; font-size:50px; letter-spacing:20;">SPIE</text>
					
						<text transform="matrix(1 0 0 1 1386.4399 -1228.7402)" class="st2" style="font-family:'ProximaNova-Extrabld'; font-size:50px; letter-spacing:15;">L</text>
					
						<text transform="matrix(1 0 0 1 1428.7402 -1228.7402)" class="st2" style="font-family:'ProximaNova-Extrabld'; font-size:50px; letter-spacing:20;">VEREINIGUNG</text>
					<g>
						<g>
							<g>
								<g>
									<defs>
										<rect id="SVGID_7_" x="1920" y="-2049" width="1920" height="640.3"/>
									</defs>
									<clipPath id="SVGID_8_">
										<use xlink:href="#SVGID_7_"  style="overflow:visible;"/>
									</clipPath>
									<g class="st5">
										<polygon class="st2" points="1800,-1409 1800,-1433 2040,-1433 2040,-1409 										"/>
										<polygon class="st2" points="2120,-1409 2120,-1433 2360,-1433 2360,-1409 										"/>
										<polygon class="st2" points="2120,-1409 2120,-1433 2680,-1433 2680,-1409 										"/>
										<polygon class="st2" points="2440,-1409 2440,-1433 2680,-1433 2680,-1409 										"/>
										<polygon class="st2" points="2440,-1409 2440,-1433 2680,-1433 2680,-1409 										"/>
										<polygon class="st2" points="2760,-1409 2760,-1433 3000,-1433 3000,-1409 										"/>
										<polygon class="st2" points="2760,-1409 2760,-1433 3000,-1433 3000,-1409 										"/>
										<polygon class="st2" points="1800,-1585 1800,-1609 2040,-1609 2040,-1585 										"/>
										<polygon class="st2" points="2120,-1585 2120,-1609 2360,-1609 2360,-1585 										"/>
										<polygon class="st2" points="2120,-1585 2120,-1609 2360,-1609 2360,-1585 										"/>
										<polygon class="st2" points="2440,-1585 2440,-1609 2680,-1609 2680,-1585 										"/>
										<polygon class="st2" points="2440,-1585 2440,-1609 2680,-1609 2680,-1585 										"/>
										<polygon class="st2" points="2760,-1585 2760,-1609 3000,-1609 3000,-1585 										"/>
										<polygon class="st2" points="2760,-1585 2760,-1609 3000,-1609 3000,-1585 										"/>
										<polygon class="st2" points="1880,-1497 1880,-1521 2120,-1521 2120,-1497 										"/>
										<polygon class="st2" points="2200,-1497 2200,-1521 2440,-1521 2440,-1497 										"/>
										<polygon class="st2" points="2520,-1497 2520,-1521 2760,-1521 2760,-1497 										"/>
										<polygon class="st2" points="2520,-1497 2520,-1521 3400,-1521 3400,-1497 										"/>
										<polygon class="st2" points="2840,-1497 2840,-1521 3080,-1521 3080,-1497 										"/>
										<polygon class="st2" points="2840,-1497 2840,-1521 3080,-1521 3080,-1497 										"/>
										<polygon class="st2" points="1880,-1673 1880,-1697 2120,-1697 2120,-1673 										"/>
										<polygon class="st2" points="2200,-1673 2200,-1697 2440,-1697 2440,-1673 										"/>
										<polygon class="st2" points="2200,-1673 2200,-1697 2440,-1697 2440,-1673 										"/>
										<polygon class="st2" points="2520,-1673 2520,-1697 2760,-1697 2760,-1673 										"/>
										<polygon class="st2" points="2200,-1673 2200,-1697 2760,-1697 2760,-1673 										"/>
										<polygon class="st2" points="2840,-1673 2840,-1697 3080,-1697 3080,-1673 										"/>
										<polygon class="st2" points="2840,-1673 2840,-1697 3160,-1697 3160,-1673 										"/>
									</g>
								</g>
							</g>
						</g>
					</g>
					
						<text transform="matrix(1 0 0 1 2558.1001 -1755.3799)" class="st2" style="font-family:'ProximaNova-Extrabld'; font-size:70px; letter-spacing:28;">OLDSCHDOD</text>
					<g>
						<g>
							<g>
								<g>
									<defs>
										<rect id="SVGID_9_" y="-2049" width="1920" height="640.3"/>
									</defs>
									<clipPath id="SVGID_10_">
										<use xlink:href="#SVGID_9_"  style="overflow:visible;"/>
									</clipPath>
									<g class="st6">
										<polygon class="st2" points="840,-1409 840,-1433 1080,-1433 1080,-1409 										"/>
										<polygon class="st2" points="840,-1409 840,-1433 1080,-1433 1080,-1409 										"/>
										<polygon class="st2" points="1160,-1409 1160,-1433 1400,-1433 1400,-1409 										"/>
										<polygon class="st2" points="1160,-1409 1160,-1433 1520,-1433 1520,-1409 										"/>
										<polygon class="st2" points="1480,-1409 1480,-1433 1720,-1433 1720,-1409 										"/>
										<polygon class="st2" points="1480,-1409 1480,-1433 1720,-1433 1720,-1409 										"/>
										<polygon class="st2" points="1800,-1409 1800,-1433 2040,-1433 2040,-1409 										"/>
										<polygon class="st2" points="840,-1585 840,-1609 1080,-1609 1080,-1585 										"/>
										<polygon class="st2" points="840,-1585 840,-1609 1080,-1609 1080,-1585 										"/>
										<polygon class="st2" points="1160,-1585 1160,-1609 1400,-1609 1400,-1585 										"/>
										<polygon class="st2" points="1160,-1585 1160,-1609 1400,-1609 1400,-1585 										"/>
										<polygon class="st2" points="1480,-1585 1480,-1609 1720,-1609 1720,-1585 										"/>
										<polygon class="st2" points="1480,-1585 1480,-1609 1720,-1609 1720,-1585 										"/>
										<polygon class="st2" points="1800,-1585 1800,-1609 2040,-1609 2040,-1585 										"/>
										<polygon class="st2" points="600,-1497 600,-1521 1480,-1521 1480,-1497 										"/>
										<polygon class="st2" points="920,-1497 920,-1521 1160,-1521 1160,-1497 										"/>
										<polygon class="st2" points="920,-1497 920,-1521 1160,-1521 1160,-1497 										"/>
										<polygon class="st2" points="1240,-1497 1240,-1521 1480,-1521 1480,-1497 										"/>
										<polygon class="st2" points="1240,-1497 1240,-1521 1480,-1521 1480,-1497 										"/>
										<polygon class="st2" points="1880,-1497 1880,-1521 2120,-1521 2120,-1497 										"/>
										<polygon class="st2" points="920,-1673 920,-1697 1160,-1697 1160,-1673 										"/>
										<polygon class="st2" points="920,-1673 920,-1697 1240,-1697 1240,-1673 										"/>
										<polygon class="st2" points="1240,-1673 1240,-1697 1480,-1697 1480,-1673 										"/>
										<polygon class="st2" points="1240,-1673 1240,-1697 1480,-1697 1480,-1673 										"/>
										<polygon class="st2" points="1560,-1673 1560,-1697 1800,-1697 1800,-1673 										"/>
										<polygon class="st2" points="1560,-1673 1560,-1697 1800,-1697 1800,-1673 										"/>
										<polygon class="st2" points="1880,-1673 1880,-1697 2120,-1697 2120,-1673 										"/>
									</g>
								</g>
							</g>
						</g>
					</g>
					
						<text transform="matrix(1 0 0 1 638.1001 -1755.3799)" class="st2" style="font-family:'ProximaNova-Extrabld'; font-size:70px; letter-spacing:28;">OLDSCHDOD</text>
					
						<text transform="matrix(1 0 0 1 1541.8101 -1478.8701)" class="st2" style="font-family:'ProximaNova-Extrabld'; font-size:100px; letter-spacing:20;">1921</text>
				</g>
			</g>
		</g>
	</g>
</pattern>
<g id="Ebene_2_1_">
	<g id="Ebene_1-2">
		
			<pattern  id="SVGID_11_" xlink:href="#SVGID_11_2" patternTransform="matrix(0.51 -2.000000e-02 -5.000000e-02 0.51 -16920.8926 19810.1172)">
		</pattern>
		<rect class="st7" width="1685.9" height="1080"/>
	</g>
</g>
</svg>
