<?xml version="1.0" encoding="utf-8"?>
<!-- Generator: Adobe Illustrator 25.2.1, SVG Export Plug-In . SVG Version: 6.00 Build 0)  -->
<svg version="1.0" id="Ebene_2" xmlns="http://www.w3.org/2000/svg" xmlns:xlink="http://www.w3.org/1999/xlink" x="0px" y="0px"
	 viewBox="0 0 219.2 219.2" style="enable-background:new 0 0 219.2 219.2;" xml:space="preserve">
<g>
	<path d="M109.6,219.2C49.2,219.2,0,170,0,109.6C0,49.2,49.2,0,109.6,0s109.6,49.2,109.6,109.6C219.2,170,170,219.2,109.6,219.2z
		 M109.6,11C55.2,11,11,55.2,11,109.6c0,54.4,44.2,98.6,98.6,98.6s98.6-44.2,98.6-98.6C208.2,55.2,163.9,11,109.6,11z"/>
	<g>
		<path d="M109.5,150.3l-6.2-119l-10.6,2.2l10.5,151.8h13.6l10.5-151.8l-10.6-2.2l-6.2,119H109.5z M51.4,95.3
			c-0.8-6.4-0.9-13.8-1.4-17.4c-0.6-4-3.3-1.4-3.6,1c-1,6.6-1.4,12.6-1.7,18.3c-0.1,2.3,0.3,4.8,3,5.5l7.1,0.3
			c4.9,0.2,5.9,9.2,5.9,12.5l-0.9,23.2c-0.2,5.1-4.8,12.6-10.3,13.7c-5.7,1.1-10.5-2.7-12.7-7.4c-2.8-5.8-3.3-14.4-3.4-20.7l9.7-1.5
			c0.4,6,0.7,11,1.3,14.7c0.4,2.5,2.6,9.3,4.8,3.9c1-2.3,1.3-5.8,1.3-7.2L51,117c0.1-3.7-1.9-5.8-5.7-5.7l-4.5,0.1
			c-4.9-0.5-6.8-4.4-6.7-7.8c0.1-4.9,0.6-11.3,1.5-16.1c1.2-6.3,4.2-13.9,8.1-17.7c3.9-3.7,10.5-4.6,13.3,1.1
			c2.9,6,3.7,16.6,4.4,23.1L51.4,95.3z M92.4,58l-0.9,63.6c-0.2,12.4-6.4,14.9-17.8,14.6l-0.3,41.4l-11-6.6l1.7-121.5
			c3.2-5.4,11.4-13.2,19.3-9.6C90.7,43.8,92.9,51.8,92.4,58L92.4,58z M74.3,50.5l-0.5,76.6c3.5,0.9,8.8-2.2,8.7-6.1L82.3,58
			c0-2.1,0-3.9-0.7-5.5C80.6,50.5,78.4,49.1,74.3,50.5z M130.7,70.7c0.9-9.2,3.9-25.9,15.3-27.9c12.9-2.3,10.5,29.5,11,37l-8.7-0.1
			l-0.2-20.7c0-2.2-0.1-4.7-0.9-6c-1-1.6-2.9-1.1-3.7,4c-4.2,26-5.7,51.8-5.7,77.4c0.2,10.4,0.6,20.3,2,27c2.5,12,4.5,4.4,5.4-2.2
			c2-15,2.6-31.5,1.7-48.3l-4.6,0.3l-0.4-9.7l15.2,0.1c-0.3,15,0,30-1.4,45.1c-1,10.4-1.9,39-20,29.5c-3.1-1.9-5.6-6.1-6.7-12.2
			C124.4,136.9,127.9,98.2,130.7,70.7z M160,88.3c1.1-8.4,3.1-17.1,7.7-20.9c3.1-2.5,7.8-3,10.5,1c3.7,5.4,6.1,23.5,6.5,26.2
			l-8.6,0.4l-1.7-18.6c-1.1-3.5-2.7-2.2-3.7-0.4c-1.9,3.3-3.7,23.3-3.8,33c0,1.6,0.3,13.7,1.1,23.2c0.7,8.6,3.9,16.9,6.7,4.4
			c1.6-7.2,2-17.6,1.8-21.2l-5.4-0.3l0.5-8.4l14.2-0.6c0.1,5.7,0,29.7-6.2,40.8c-1.8,3.2-4.3,5.2-7.6,5.2
			c-8.2-0.2-10.8-7.5-11.8-14.5C158,121,158,104.6,160,88.3z"/>
	</g>
</g>
</svg>
