<svg xmlns="http://www.w3.org/2000/svg" xmlns:xlink="http://www.w3.org/1999/xlink" viewBox="0 0 3578.84 1703.65"><defs><style>.cls-1{fill:#1a1a1a;}.cls-2{fill:#262626;}.cls-3{fill:#404040;}.cls-4{fill:url(#linear-gradient);}.cls-5{fill:url(#linear-gradient-2);}</style><linearGradient id="linear-gradient" x1="1506.79" y1="1252.23" x2="-207.59" y2="2262.16" gradientTransform="matrix(0.96, 0.29, -0.12, 1, 468.64, -1399.27)" gradientUnits="userSpaceOnUse"><stop offset="0" stop-color="#ffe600"/><stop offset="0.57" stop-color="#f6d318"/><stop offset="1" stop-color="#eec32d"/></linearGradient><linearGradient id="linear-gradient-2" x1="2937.67" y1="254.81" x2="-385.98" y2="2212.74" xlink:href="#linear-gradient"/></defs><g id="Ebene_2" data-name="Ebene 2"><g id="Layer_1" data-name="Layer 1"><polygon class="cls-1" points="3578.84 757.81 1736.44 810.45 1692.33 1170.34 3534.73 1117.7 3578.84 757.81"/><polygon class="cls-2" points="3047.34 1570.2 2003.03 1600.04 2078.51 984.15 3122.82 954.31 3047.34 1570.2"/><polygon class="cls-1" points="2387.76 404.74 55.83 471.37 0 926.89 2331.93 860.26 2387.76 404.74"/><path class="cls-3" d="M720,851.91a7.44,7.44,0,0,0-9.82,6.44,11.13,11.13,0,0,0,7.6,11.62,7.43,7.43,0,0,0,9.82-6.44A11.13,11.13,0,0,0,720,851.91ZM632.7,1173.39a7.43,7.43,0,0,0-9.82,6.44,11.13,11.13,0,0,0,7.61,11.62,7.44,7.44,0,0,0,9.82-6.44A11.13,11.13,0,0,0,632.7,1173.39ZM714.12,899.8a7.43,7.43,0,0,0-9.82,6.44,11.12,11.12,0,0,0,7.61,11.62,7.42,7.42,0,0,0,9.81-6.44A11.11,11.11,0,0,0,714.12,899.8Zm-5.87,47.89a7.43,7.43,0,0,0-9.82,6.44A11.13,11.13,0,0,0,706,965.74a7.43,7.43,0,0,0,9.82-6.44A11.13,11.13,0,0,0,708.25,947.69ZM725.86,804a7.43,7.43,0,0,0-9.82,6.44,11.12,11.12,0,0,0,7.6,11.61,7.43,7.43,0,0,0,9.82-6.44A11.12,11.12,0,0,0,725.86,804Zm-75.55,225.7a7.43,7.43,0,0,0-9.82,6.44,11.12,11.12,0,0,0,7.61,11.62,7.43,7.43,0,0,0,9.81-6.44A11.11,11.11,0,0,0,650.31,1029.73Zm-5.87,47.88a7.44,7.44,0,0,0-9.82,6.44,11.13,11.13,0,0,0,7.61,11.62,7.43,7.43,0,0,0,9.82-6.44A11.14,11.14,0,0,0,644.44,1077.61Zm-5.87,47.89a7.43,7.43,0,0,0-9.82,6.44,11.13,11.13,0,0,0,7.61,11.62,7.43,7.43,0,0,0,9.82-6.44A11.13,11.13,0,0,0,638.57,1125.5Zm63.81-129.93a7.44,7.44,0,0,0-9.82,6.44,11.13,11.13,0,0,0,7.61,11.62,7.43,7.43,0,0,0,9.82-6.44A11.13,11.13,0,0,0,702.38,995.57Zm-75.55,225.7a7.44,7.44,0,0,0-9.82,6.44,11.13,11.13,0,0,0,7.61,11.62,7.43,7.43,0,0,0,9.82-6.44A11.14,11.14,0,0,0,626.83,1221.27ZM772.06,817.76a7.43,7.43,0,0,0-9.82,6.44,11.14,11.14,0,0,0,7.61,11.62,7.44,7.44,0,0,0,9.82-6.44A11.13,11.13,0,0,0,772.06,817.76ZM748.59,1009.3a7.43,7.43,0,0,0-9.82,6.44,11.11,11.11,0,0,0,7.6,11.62,7.43,7.43,0,0,0,9.82-6.44A11.13,11.13,0,0,0,748.59,1009.3Zm-52.08,34.16a7.43,7.43,0,0,0-9.82,6.44,11.13,11.13,0,0,0,7.61,11.62,7.44,7.44,0,0,0,9.82-6.44A11.13,11.13,0,0,0,696.51,1043.46Zm63.81-129.93A7.43,7.43,0,0,0,750.5,920a11.13,11.13,0,0,0,7.61,11.62,7.43,7.43,0,0,0,9.82-6.44A11.13,11.13,0,0,0,760.32,913.53Zm-5.87,47.89a7.42,7.42,0,0,0-9.81,6.44,11.12,11.12,0,0,0,7.6,11.62,7.44,7.44,0,0,0,9.82-6.44A11.12,11.12,0,0,0,754.45,961.42Zm-98.27,20.42a7.43,7.43,0,0,0-9.82,6.44A11.13,11.13,0,0,0,654,999.9a7.43,7.43,0,0,0,9.82-6.44A11.13,11.13,0,0,0,656.18,981.84Zm28.59,157.39a7.43,7.43,0,0,0-9.81,6.44,11.11,11.11,0,0,0,7.6,11.62,7.43,7.43,0,0,0,9.82-6.44A11.12,11.12,0,0,0,684.77,1139.23Zm5.87-47.88a7.43,7.43,0,0,0-9.82,6.44,11.13,11.13,0,0,0,7.61,11.61,7.43,7.43,0,0,0,9.82-6.44A11.12,11.12,0,0,0,690.64,1091.35Zm-11.73,95.77a7.43,7.43,0,0,0-9.82,6.44,11.13,11.13,0,0,0,7.6,11.62,7.44,7.44,0,0,0,9.82-6.44A11.13,11.13,0,0,0,678.91,1187.12ZM673,1235a7.43,7.43,0,0,0-9.82,6.44,11.12,11.12,0,0,0,7.6,11.61,7.43,7.43,0,0,0,9.82-6.44A11.12,11.12,0,0,0,673,1235ZM783.1,785.37l-10.53.3a9.44,9.44,0,0,0,3.21,1.73A6.91,6.91,0,0,0,783.1,785.37ZM540.29,1145.92a7.43,7.43,0,0,0-9.81,6.44,11.11,11.11,0,0,0,7.6,11.62,7.43,7.43,0,0,0,9.82-6.44A11.13,11.13,0,0,0,540.29,1145.92Zm-11.73,95.78a7.43,7.43,0,0,0-9.82,6.44,11.13,11.13,0,0,0,7.6,11.62,7.44,7.44,0,0,0,9.82-6.44A11.13,11.13,0,0,0,528.56,1241.7Zm5.87-47.89a7.43,7.43,0,0,0-9.82,6.44,11.13,11.13,0,0,0,7.6,11.62,7.43,7.43,0,0,0,9.82-6.44A11.13,11.13,0,0,0,534.43,1193.81Zm93.15-369.36a7.43,7.43,0,0,0-9.82,6.44,11.13,11.13,0,0,0,7.61,11.62,7.43,7.43,0,0,0,9.82-6.44A11.13,11.13,0,0,0,627.58,824.45Zm-5.87,47.89a7.43,7.43,0,0,0-9.82,6.44,11.14,11.14,0,0,0,7.61,11.62,7.44,7.44,0,0,0,9.82-6.44A11.13,11.13,0,0,0,621.71,872.34Zm18.64-82.89-14.81.42a10.47,10.47,0,0,0,5.73,4.49A7.07,7.07,0,0,0,640.35,789.45ZM563.77,954.38a7.43,7.43,0,0,0-9.82,6.44,11.13,11.13,0,0,0,7.61,11.62,7.44,7.44,0,0,0,9.82-6.44A11.13,11.13,0,0,0,563.77,954.38ZM546.16,1098a7.43,7.43,0,0,0-9.82,6.44A11.13,11.13,0,0,0,544,1116.1a7.44,7.44,0,0,0,9.82-6.44A11.12,11.12,0,0,0,546.16,1098Zm11.74-95.77a7.43,7.43,0,0,0-9.82,6.44,11.13,11.13,0,0,0,7.61,11.61,7.43,7.43,0,0,0,9.82-6.44A11.13,11.13,0,0,0,557.9,1002.27ZM552,1050.15a7.44,7.44,0,0,0-9.82,6.44,11.13,11.13,0,0,0,7.61,11.62,7.43,7.43,0,0,0,9.82-6.44A11.13,11.13,0,0,0,552,1050.15Zm121.75-212a7.43,7.43,0,0,0-9.81,6.44,11.11,11.11,0,0,0,7.6,11.62,7.43,7.43,0,0,0,9.82-6.44A11.12,11.12,0,0,0,673.78,838.18Zm-93.15,369.36a7.44,7.44,0,0,0-9.82,6.44,11.12,11.12,0,0,0,7.61,11.62,7.43,7.43,0,0,0,9.82-6.44A11.13,11.13,0,0,0,580.63,1207.54Zm99-417.25a7.43,7.43,0,0,0-9.81,6.44,11.11,11.11,0,0,0,7.6,11.62,7.43,7.43,0,0,0,9.82-6.44A11.13,11.13,0,0,0,679.65,790.29ZM586.5,1159.66a7.43,7.43,0,0,0-9.82,6.44,11.13,11.13,0,0,0,7.61,11.62,7.43,7.43,0,0,0,9.81-6.45A11.11,11.11,0,0,0,586.5,1159.66Zm81.42-273.59a7.43,7.43,0,0,0-9.82,6.44,11.13,11.13,0,0,0,7.6,11.62,7.44,7.44,0,0,0,9.82-6.44A11.13,11.13,0,0,0,667.92,886.07ZM662.05,934a7.44,7.44,0,0,0-9.82,6.44,11.13,11.13,0,0,0,7.6,11.62,7.43,7.43,0,0,0,9.82-6.44A11.13,11.13,0,0,0,662.05,934Zm-57.94,82a7.43,7.43,0,0,0-9.82,6.44,11.12,11.12,0,0,0,7.6,11.62,7.44,7.44,0,0,0,9.82-6.44A11.13,11.13,0,0,0,604.11,1016Zm11.73-95.78a7.44,7.44,0,0,0-9.82,6.44,11.13,11.13,0,0,0,7.61,11.62,7.43,7.43,0,0,0,9.82-6.44A11.13,11.13,0,0,0,615.84,920.22ZM610,968.11a7.43,7.43,0,0,0-9.82,6.44,11.13,11.13,0,0,0,7.61,11.62,7.43,7.43,0,0,0,9.82-6.44A11.12,11.12,0,0,0,610,968.11Zm-11.73,95.77a7.43,7.43,0,0,0-9.82,6.44,11.13,11.13,0,0,0,7.6,11.62,7.43,7.43,0,0,0,9.82-6.44A11.13,11.13,0,0,0,598.24,1063.88Zm-5.87,47.89a7.43,7.43,0,0,0-9.82,6.44,11.13,11.13,0,0,0,7.6,11.62,7.43,7.43,0,0,0,9.82-6.44A11.13,11.13,0,0,0,592.37,1111.77ZM852.73,941a7.44,7.44,0,0,0-9.82,6.44,11.13,11.13,0,0,0,7.61,11.62,7.43,7.43,0,0,0,9.82-6.44A11.13,11.13,0,0,0,852.73,941Zm-35.21,287.32a7.44,7.44,0,0,0-9.82,6.44,11.13,11.13,0,0,0,7.6,11.62,7.43,7.43,0,0,0,9.82-6.44A11.13,11.13,0,0,0,817.52,1228.31ZM887.2,1050.5a7.43,7.43,0,0,0-9.82,6.44,11.13,11.13,0,0,0,7.6,11.62,7.44,7.44,0,0,0,9.82-6.44A11.13,11.13,0,0,0,887.2,1050.5Zm11.73-95.78a7.43,7.43,0,0,0-9.81,6.44,11.11,11.11,0,0,0,7.6,11.62,7.43,7.43,0,0,0,9.82-6.44A11.13,11.13,0,0,0,898.93,954.72Zm-17.6,143.66a7.44,7.44,0,0,0-9.82,6.44,11.13,11.13,0,0,0,7.6,11.62,7.43,7.43,0,0,0,9.82-6.44A11.13,11.13,0,0,0,881.33,1098.38Zm-11.74,95.78a7.43,7.43,0,0,0-9.82,6.44,11.13,11.13,0,0,0,7.61,11.62,7.43,7.43,0,0,0,9.81-6.44A11.11,11.11,0,0,0,869.59,1194.16Zm-46.2-13.73a7.43,7.43,0,0,0-9.82,6.44,11.12,11.12,0,0,0,7.6,11.61A7.43,7.43,0,0,0,831,1192,11.12,11.12,0,0,0,823.39,1180.43Zm52.07-34.16a7.43,7.43,0,0,0-9.82,6.44,11.13,11.13,0,0,0,7.6,11.62,7.43,7.43,0,0,0,9.82-6.44A11.13,11.13,0,0,0,875.46,1146.27ZM904.8,906.84a7.43,7.43,0,0,0-9.82,6.44,11.13,11.13,0,0,0,7.61,11.62,7.44,7.44,0,0,0,9.82-6.44A11.13,11.13,0,0,0,904.8,906.84Zm11.74-95.78a7.44,7.44,0,0,0-9.82,6.44,11.13,11.13,0,0,0,7.61,11.62,7.43,7.43,0,0,0,9.82-6.44A11.14,11.14,0,0,0,916.54,811.06ZM910.67,859a7.44,7.44,0,0,0-9.82,6.44A11.13,11.13,0,0,0,908.46,877a7.43,7.43,0,0,0,9.82-6.44A11.13,11.13,0,0,0,910.67,859Zm-17.6,143.66a7.43,7.43,0,0,0-9.82,6.44,11.13,11.13,0,0,0,7.6,11.62,7.43,7.43,0,0,0,9.82-6.44A11.13,11.13,0,0,0,893.07,1002.61Zm22.72,205.28a7.43,7.43,0,0,0-9.82,6.44,11.13,11.13,0,0,0,7.61,11.62,7.44,7.44,0,0,0,9.82-6.44A11.12,11.12,0,0,0,915.79,1207.89Zm11.74-95.77a7.43,7.43,0,0,0-9.82,6.44,11.13,11.13,0,0,0,7.61,11.61,7.43,7.43,0,0,0,9.82-6.44A11.13,11.13,0,0,0,927.53,1112.12ZM962.74,824.8a7.42,7.42,0,0,0-9.81,6.44,11.11,11.11,0,0,0,7.6,11.61,7.43,7.43,0,0,0,9.82-6.44A11.12,11.12,0,0,0,962.74,824.8ZM239.6,1255.08a7.44,7.44,0,0,0-9.82,6.44,10.87,10.87,0,0,0,3.05,8.55l13.37-.38a8.38,8.38,0,0,0,1-3A11.13,11.13,0,0,0,239.6,1255.08Zm693.8-190.85a7.43,7.43,0,0,0-9.82,6.44,11.13,11.13,0,0,0,7.61,11.62,7.44,7.44,0,0,0,9.82-6.44A11.13,11.13,0,0,0,933.4,1064.23Zm-190.68-7a7.43,7.43,0,0,0-9.82,6.44,11.13,11.13,0,0,0,7.6,11.62,7.43,7.43,0,0,0,9.82-6.44A11.13,11.13,0,0,0,742.72,1057.19Zm196.55-40.85a7.44,7.44,0,0,0-9.82,6.44,11.12,11.12,0,0,0,7.61,11.62,7.42,7.42,0,0,0,9.81-6.44A11.11,11.11,0,0,0,939.27,1016.34Zm17.61-143.66a7.43,7.43,0,0,0-9.82,6.44,11.13,11.13,0,0,0,7.6,11.62,7.43,7.43,0,0,0,9.82-6.44A11.13,11.13,0,0,0,956.88,872.68ZM951,920.57a7.43,7.43,0,0,0-9.82,6.44,11.13,11.13,0,0,0,7.6,11.62,7.43,7.43,0,0,0,9.82-6.44A11.13,11.13,0,0,0,951,920.57Zm-5.87,47.89a7.43,7.43,0,0,0-9.82,6.44,11.12,11.12,0,0,0,7.6,11.61,7.43,7.43,0,0,0,9.82-6.44A11.11,11.11,0,0,0,945.14,968.46ZM921.66,1160a7.44,7.44,0,0,0-9.82,6.44,11.13,11.13,0,0,0,7.61,11.62,7.43,7.43,0,0,0,9.82-6.44A11.13,11.13,0,0,0,921.66,1160Zm-121-184.85a7.43,7.43,0,0,0-9.82,6.44,11.13,11.13,0,0,0,7.6,11.62,7.43,7.43,0,0,0,9.82-6.44A11.13,11.13,0,0,0,800.66,975.15Zm5.87-47.89a7.44,7.44,0,0,0-9.82,6.44,11.13,11.13,0,0,0,7.6,11.62,7.43,7.43,0,0,0,9.82-6.44A11.13,11.13,0,0,0,806.53,927.26Zm-17.61,143.66a7.44,7.44,0,0,0-9.82,6.44,11.13,11.13,0,0,0,7.61,11.62,7.43,7.43,0,0,0,9.82-6.44A11.13,11.13,0,0,0,788.92,1070.92Zm5.87-47.89a7.44,7.44,0,0,0-9.82,6.45,11.12,11.12,0,0,0,7.61,11.61,7.42,7.42,0,0,0,9.81-6.44A11.12,11.12,0,0,0,794.79,1023ZM812.4,879.37a7.43,7.43,0,0,0-9.82,6.45,11.12,11.12,0,0,0,7.6,11.61A7.43,7.43,0,0,0,820,891,11.13,11.13,0,0,0,812.4,879.37Zm16.85,253.17a7.42,7.42,0,0,0-9.81,6.44,11.11,11.11,0,0,0,7.6,11.62,7.43,7.43,0,0,0,9.82-6.44A11.12,11.12,0,0,0,829.25,1132.54Zm-92.4-27.46a7.43,7.43,0,0,0-9.82,6.44,11.13,11.13,0,0,0,7.6,11.62,7.43,7.43,0,0,0,9.82-6.44A11.13,11.13,0,0,0,736.85,1105.08Zm-11.74,95.77a7.43,7.43,0,0,0-9.82,6.44,11.12,11.12,0,0,0,7.61,11.62,7.43,7.43,0,0,0,9.82-6.44A11.13,11.13,0,0,0,725.11,1200.85Zm57.94-82a7.43,7.43,0,0,0-9.82,6.44,11.13,11.13,0,0,0,7.61,11.62,7.44,7.44,0,0,0,9.82-6.44A11.13,11.13,0,0,0,783.05,1118.81Zm35.22-287.32a7.43,7.43,0,0,0-9.82,6.44,11.13,11.13,0,0,0,7.6,11.62,7.44,7.44,0,0,0,9.82-6.44A11.13,11.13,0,0,0,818.27,831.49ZM731,1153a7.44,7.44,0,0,0-9.82,6.44,11.12,11.12,0,0,0,7.61,11.62,7.42,7.42,0,0,0,9.81-6.44A11.12,11.12,0,0,0,731,1153ZM846.86,988.88a7.43,7.43,0,0,0-9.82,6.44,11.13,11.13,0,0,0,7.61,11.62,7.43,7.43,0,0,0,9.82-6.44A11.13,11.13,0,0,0,846.86,988.88ZM569.64,906.49a7.44,7.44,0,0,0-9.82,6.44,11.13,11.13,0,0,0,7.61,11.62,7.42,7.42,0,0,0,9.81-6.44A11.11,11.11,0,0,0,569.64,906.49Zm265.48,178.16a7.44,7.44,0,0,0-9.82,6.44,11.13,11.13,0,0,0,7.61,11.62,7.43,7.43,0,0,0,9.82-6.44A11.12,11.12,0,0,0,835.12,1084.65Zm5.87-47.88a7.43,7.43,0,0,0-9.82,6.44,11.14,11.14,0,0,0,7.61,11.62,7.44,7.44,0,0,0,9.82-6.44A11.13,11.13,0,0,0,841,1036.77ZM858.6,893.11a7.43,7.43,0,0,0-9.82,6.44,11.13,11.13,0,0,0,7.61,11.62,7.44,7.44,0,0,0,9.82-6.44A11.13,11.13,0,0,0,858.6,893.11Zm-87.29,321.47a7.44,7.44,0,0,0-9.82,6.44,11.13,11.13,0,0,0,7.61,11.62,7.43,7.43,0,0,0,9.82-6.44A11.12,11.12,0,0,0,771.31,1214.58Zm53.9-430.42-7.45.22a7.62,7.62,0,0,0-3.44,5.66,11.11,11.11,0,0,0,7.6,11.62,7.43,7.43,0,0,0,9.82-6.44A11.06,11.06,0,0,0,825.21,784.16Zm-48,382.53a7.44,7.44,0,0,0-9.82,6.45,11.13,11.13,0,0,0,7.61,11.61,7.43,7.43,0,0,0,9.82-6.44A11.14,11.14,0,0,0,777.18,1166.69Zm87.29-321.47a7.43,7.43,0,0,0-9.82,6.44,11.12,11.12,0,0,0,7.61,11.62,7.42,7.42,0,0,0,9.81-6.44A11.11,11.11,0,0,0,864.47,845.22Zm5.87-47.89a7.44,7.44,0,0,0-9.82,6.44,11.13,11.13,0,0,0,7.6,11.62,7.43,7.43,0,0,0,9.82-6.44A11.13,11.13,0,0,0,870.34,797.33ZM766.19,865.64a7.44,7.44,0,0,0-9.82,6.44A11.13,11.13,0,0,0,764,883.7a7.43,7.43,0,0,0,9.82-6.44A11.14,11.14,0,0,0,766.19,865.64Zm-503.12,197.9a7.43,7.43,0,0,0-9.82,6.44,11.13,11.13,0,0,0,7.61,11.62,7.44,7.44,0,0,0,9.82-6.44A11.13,11.13,0,0,0,263.07,1063.54ZM286.55,872a7.43,7.43,0,0,0-9.82,6.44,11.12,11.12,0,0,0,7.61,11.62,7.42,7.42,0,0,0,9.81-6.44A11.11,11.11,0,0,0,286.55,872Zm-11.74,95.77A7.44,7.44,0,0,0,265,974.2a11.13,11.13,0,0,0,7.61,11.62,7.43,7.43,0,0,0,9.82-6.44A11.14,11.14,0,0,0,274.81,967.76ZM292.42,824.1a7.44,7.44,0,0,0-9.82,6.44,11.13,11.13,0,0,0,7.6,11.62,7.43,7.43,0,0,0,9.82-6.44A11.13,11.13,0,0,0,292.42,824.1Zm-23.48,191.55a7.43,7.43,0,0,0-9.82,6.44,11.13,11.13,0,0,0,7.61,11.62,7.43,7.43,0,0,0,9.82-6.44A11.13,11.13,0,0,0,268.94,1015.65Zm11.74-95.77a7.43,7.43,0,0,0-9.82,6.44,11.12,11.12,0,0,0,7.61,11.62,7.44,7.44,0,0,0,9.82-6.44A11.13,11.13,0,0,0,280.68,919.88ZM211,1097.69a7.44,7.44,0,0,0-9.82,6.44,11.13,11.13,0,0,0,7.61,11.62,7.43,7.43,0,0,0,9.82-6.44A11.13,11.13,0,0,0,211,1097.69Zm5.87-47.88a7.43,7.43,0,0,0-9.82,6.44,11.13,11.13,0,0,0,7.61,11.62,7.43,7.43,0,0,0,9.81-6.45A11.11,11.11,0,0,0,216.87,1049.81Zm-11.74,95.77a7.43,7.43,0,0,0-9.82,6.44,11.13,11.13,0,0,0,7.61,11.62,7.43,7.43,0,0,0,9.82-6.44A11.13,11.13,0,0,0,205.13,1145.58Zm-5.87,47.89a7.43,7.43,0,0,0-9.82,6.44,11.14,11.14,0,0,0,7.61,11.62,7.44,7.44,0,0,0,9.82-6.45A11.13,11.13,0,0,0,199.26,1193.47Zm115.89-164.09a7.43,7.43,0,0,0-9.82,6.44,11.13,11.13,0,0,0,7.6,11.62,7.43,7.43,0,0,0,9.82-6.44A11.13,11.13,0,0,0,315.15,1029.38ZM321,981.5a7.42,7.42,0,0,0-9.81,6.44,11.11,11.11,0,0,0,7.6,11.61,7.43,7.43,0,0,0,9.82-6.44A11.12,11.12,0,0,0,321,981.5ZM257.2,1111.42a7.43,7.43,0,0,0-9.81,6.44,11.11,11.11,0,0,0,7.6,11.62,7.43,7.43,0,0,0,9.82-6.44A11.13,11.13,0,0,0,257.2,1111.42Zm75.55-225.7a7.44,7.44,0,0,0-9.82,6.44,11.13,11.13,0,0,0,7.61,11.62,7.43,7.43,0,0,0,9.82-6.44A11.13,11.13,0,0,0,332.75,885.72Zm-110,116.2a7.43,7.43,0,0,0-9.82,6.44,11.13,11.13,0,0,0,7.6,11.62,7.43,7.43,0,0,0,9.82-6.44A11.11,11.11,0,0,0,222.74,1001.92Zm80.67,123.24a7.43,7.43,0,0,0-9.82,6.44,11.12,11.12,0,0,0,7.6,11.61,7.43,7.43,0,0,0,9.82-6.44A11.12,11.12,0,0,0,303.41,1125.16Zm23.47-191.55a7.43,7.43,0,0,0-9.82,6.44,11.13,11.13,0,0,0,7.61,11.62,7.44,7.44,0,0,0,9.82-6.44A11.13,11.13,0,0,0,326.88,933.61Zm11.74-95.77a7.43,7.43,0,0,0-9.82,6.44,11.13,11.13,0,0,0,7.61,11.61,7.43,7.43,0,0,0,9.82-6.44A11.13,11.13,0,0,0,338.62,837.84Zm-87.29,321.47a7.42,7.42,0,0,0-9.81,6.44,11.11,11.11,0,0,0,7.6,11.62,7.43,7.43,0,0,0,9.82-6.44A11.12,11.12,0,0,0,251.33,1159.31Zm-5.86,47.89a7.43,7.43,0,0,0-9.82,6.44,11.13,11.13,0,0,0,7.6,11.62,7.44,7.44,0,0,0,9.82-6.44A11.13,11.13,0,0,0,245.47,1207.2Zm96.82-399.32a7.33,7.33,0,0,0,9.68-6.35,9.9,9.9,0,0,0-.33-3.83l-16.72.47A10.9,10.9,0,0,0,342.29,807.88Zm-33,269.39a7.43,7.43,0,0,0-9.82,6.44,11.13,11.13,0,0,0,7.6,11.62,7.44,7.44,0,0,0,9.82-6.44A11.13,11.13,0,0,0,309.28,1077.27Zm676.19-47.2a7.44,7.44,0,0,0-9.82,6.44,11.13,11.13,0,0,0,7.61,11.62,7.43,7.43,0,0,0,9.82-6.44A11.14,11.14,0,0,0,985.47,1030.07Zm-11.74,95.78a7.42,7.42,0,0,0-9.81,6.44,11.12,11.12,0,0,0,7.6,11.62,7.44,7.44,0,0,0,9.82-6.44A11.12,11.12,0,0,0,973.73,1125.85ZM1009,838.53a7.43,7.43,0,0,0-9.82,6.44,11.13,11.13,0,0,0,7.61,11.62,7.43,7.43,0,0,0,9.81-6.44A11.11,11.11,0,0,0,1009,838.53ZM997.21,934.3a7.43,7.43,0,0,0-9.82,6.44A11.13,11.13,0,0,0,995,952.36a7.43,7.43,0,0,0,9.82-6.44A11.13,11.13,0,0,0,997.21,934.3Zm-5.87,47.89a7.43,7.43,0,0,0-9.82,6.44,11.14,11.14,0,0,0,7.61,11.62,7.44,7.44,0,0,0,9.82-6.44A11.13,11.13,0,0,0,991.34,982.19ZM575.51,858.61a7.43,7.43,0,0,0-9.82,6.44,11.12,11.12,0,0,0,7.6,11.61,7.43,7.43,0,0,0,9.82-6.44A11.12,11.12,0,0,0,575.51,858.61Zm397.61-78.67-13.3.38a8.18,8.18,0,0,0-1,3A11.13,11.13,0,0,0,966.4,795a7.43,7.43,0,0,0,9.82-6.44A10.86,10.86,0,0,0,973.12,779.94Zm-5.25,393.79a7.43,7.43,0,0,0-9.82,6.44,11.13,11.13,0,0,0,7.6,11.62,7.43,7.43,0,0,0,9.82-6.44A11.13,11.13,0,0,0,967.87,1173.73Zm44.73-365a7.43,7.43,0,0,0,9.82-6.44,11.13,11.13,0,0,0-7.6-11.62,7.43,7.43,0,0,0-9.82,6.44A11.13,11.13,0,0,0,1012.6,808.7ZM962,1221.62a7.43,7.43,0,0,0-9.82,6.44,11.13,11.13,0,0,0,7.6,11.62,7.43,7.43,0,0,0,9.82-6.44A11.13,11.13,0,0,0,962,1221.62ZM246.21,810.37a7.44,7.44,0,0,0-9.82,6.44A11.13,11.13,0,0,0,244,828.43a7.43,7.43,0,0,0,9.82-6.44A11.13,11.13,0,0,0,246.21,810.37Zm137.87,438a7.43,7.43,0,0,0-9.82,6.44,11,11,0,0,0,6.44,11l7.66-.21a7.68,7.68,0,0,0,3.32-5.62A11.13,11.13,0,0,0,384.08,1248.39Zm-190.69-7a7.44,7.44,0,0,0-9.82,6.44,11.13,11.13,0,0,0,7.61,11.62A7.43,7.43,0,0,0,201,1253,11.12,11.12,0,0,0,193.39,1241.35ZM228.61,954a7.44,7.44,0,0,0-9.82,6.44,11.13,11.13,0,0,0,7.6,11.62,7.43,7.43,0,0,0,9.82-6.44A11.13,11.13,0,0,0,228.61,954Zm774.47-67.62a7.44,7.44,0,0,0-9.82,6.44,11.12,11.12,0,0,0,7.61,11.62,7.43,7.43,0,0,0,9.82-6.44A11.14,11.14,0,0,0,1003.08,886.41Zm-768.6,19.74a7.43,7.43,0,0,0-9.82,6.44,11.13,11.13,0,0,0,7.6,11.62,7.44,7.44,0,0,0,9.82-6.44A11.13,11.13,0,0,0,234.48,906.15Zm5.86-47.89a7.42,7.42,0,0,0-9.81,6.44,11.11,11.11,0,0,0,7.6,11.62,7.43,7.43,0,0,0,9.82-6.44A11.12,11.12,0,0,0,240.34,858.26ZM863.7,1242.18a7.32,7.32,0,0,0-9.67,6.34,9.88,9.88,0,0,0,.3,3.79l16.75-.48A10.87,10.87,0,0,0,863.7,1242.18ZM719.21,1249a7.21,7.21,0,0,0-9.53,6.25,9.51,9.51,0,0,0,.08,1.19L726,1256A10.72,10.72,0,0,0,719.21,1249Zm-153.4,11.56,14.5-.42a10.31,10.31,0,0,0-5.6-4.31A6.94,6.94,0,0,0,565.81,1260.56Zm-142.66,4.07,10.05-.29a9.22,9.22,0,0,0-3-1.55A6.78,6.78,0,0,0,423.15,1264.63ZM979.6,1078a7.42,7.42,0,0,0-9.81,6.44,11.11,11.11,0,0,0,7.6,11.62,7.43,7.43,0,0,0,9.82-6.44A11.12,11.12,0,0,0,979.6,1078Zm-531.71,40.5a7.44,7.44,0,0,0-9.82,6.44,11.13,11.13,0,0,0,7.6,11.62,7.43,7.43,0,0,0,9.82-6.44A11.13,11.13,0,0,0,447.89,1118.46ZM291.67,1220.93a7.43,7.43,0,0,0-9.82,6.44,11.12,11.12,0,0,0,7.61,11.62,7.43,7.43,0,0,0,9.81-6.44A11.11,11.11,0,0,0,291.67,1220.93Zm168-198.24a7.43,7.43,0,0,0-9.82,6.44,11.13,11.13,0,0,0,7.6,11.62,7.43,7.43,0,0,0,9.82-6.44A11.13,11.13,0,0,0,459.63,1022.69Zm-23.48,191.55a7.43,7.43,0,0,0-9.82,6.44,11.12,11.12,0,0,0,7.61,11.61,7.43,7.43,0,0,0,9.82-6.44A11.13,11.13,0,0,0,436.15,1214.24Zm5.87-47.89a7.43,7.43,0,0,0-9.82,6.44,11.12,11.12,0,0,0,7.61,11.62,7.42,7.42,0,0,0,9.81-6.44A11.11,11.11,0,0,0,442,1166.35ZM535.17,797a7.43,7.43,0,0,0-9.82,6.44A11.13,11.13,0,0,0,533,815.05a7.44,7.44,0,0,0,9.82-6.44A11.12,11.12,0,0,0,535.17,797ZM465.49,974.8a7.43,7.43,0,0,0-9.81,6.44,11.11,11.11,0,0,0,7.6,11.62,7.43,7.43,0,0,0,9.82-6.44A11.12,11.12,0,0,0,465.49,974.8Zm21.3-173.75a7.21,7.21,0,0,0,9.53-6.25,10.46,10.46,0,0,0-.08-1.24l-16.3.47A10.7,10.7,0,0,0,486.79,801.05Zm-9.56,78a7.43,7.43,0,0,0-9.82,6.44A11.13,11.13,0,0,0,475,897.09a7.43,7.43,0,0,0,9.82-6.44A11.13,11.13,0,0,0,477.23,879Zm-5.87,47.89a7.43,7.43,0,0,0-9.82,6.44A11.14,11.14,0,0,0,469.15,945a7.44,7.44,0,0,0,9.82-6.44A11.12,11.12,0,0,0,471.36,926.92Zm11.74-95.78a7.44,7.44,0,0,0-9.82,6.44,11.13,11.13,0,0,0,7.61,11.62,7.43,7.43,0,0,0,9.82-6.44A11.13,11.13,0,0,0,483.1,831.14Zm11,301.05a7.44,7.44,0,0,0-9.82,6.44,11.13,11.13,0,0,0,7.61,11.62,7.43,7.43,0,0,0,9.82-6.44A11.14,11.14,0,0,0,494.09,1132.19ZM482.35,1228a7.43,7.43,0,0,0-9.82,6.44,11.14,11.14,0,0,0,7.61,11.62,7.44,7.44,0,0,0,9.82-6.44A11.13,11.13,0,0,0,482.35,1228Zm99-417.25a7.43,7.43,0,0,0-9.82,6.44,11.13,11.13,0,0,0,7.6,11.62,7.43,7.43,0,0,0,9.82-6.44A11.13,11.13,0,0,0,581.38,810.72Zm-93.16,369.36a7.43,7.43,0,0,0-9.82,6.44,11.13,11.13,0,0,0,7.61,11.62,7.43,7.43,0,0,0,9.82-6.44A11.13,11.13,0,0,0,488.22,1180.08ZM500,1084.31a7.43,7.43,0,0,0-9.82,6.44,11.13,11.13,0,0,0,7.61,11.62,7.44,7.44,0,0,0,9.82-6.44A11.13,11.13,0,0,0,500,1084.31Zm17.61-143.66a7.43,7.43,0,0,0-9.82,6.44,11.13,11.13,0,0,0,7.6,11.62,7.43,7.43,0,0,0,9.82-6.44A11.13,11.13,0,0,0,517.57,940.65Zm-11.74,95.77a7.43,7.43,0,0,0-9.82,6.44,11.12,11.12,0,0,0,7.61,11.62,7.42,7.42,0,0,0,9.81-6.44A11.11,11.11,0,0,0,505.83,1036.42ZM529.3,844.87a7.43,7.43,0,0,0-9.81,6.44,11.11,11.11,0,0,0,7.6,11.62,7.43,7.43,0,0,0,9.82-6.44A11.13,11.13,0,0,0,529.3,844.87Zm-5.86,47.89a7.43,7.43,0,0,0-9.82,6.44,11.13,11.13,0,0,0,7.6,11.62,7.43,7.43,0,0,0,9.82-6.44A11.13,11.13,0,0,0,523.44,892.76ZM511.7,988.53a7.44,7.44,0,0,0-9.82,6.44,11.13,11.13,0,0,0,7.6,11.62,7.43,7.43,0,0,0,9.82-6.44A11.13,11.13,0,0,0,511.7,988.53Zm-57.94,82a7.43,7.43,0,0,0-9.82,6.44,11.12,11.12,0,0,0,7.6,11.61,7.43,7.43,0,0,0,9.82-6.44A11.12,11.12,0,0,0,453.76,1070.58Zm-92.41-27.47a7.44,7.44,0,0,0-9.82,6.44,11.12,11.12,0,0,0,7.61,11.62,7.43,7.43,0,0,0,9.82-6.44A11.14,11.14,0,0,0,361.35,1043.11Zm11.74-95.77a7.43,7.43,0,0,0-9.82,6.44,11.13,11.13,0,0,0,7.6,11.62,7.43,7.43,0,0,0,9.82-6.44A11.13,11.13,0,0,0,373.09,947.34Zm-5.87,47.89a7.43,7.43,0,0,0-9.82,6.44,11.13,11.13,0,0,0,7.6,11.62,7.43,7.43,0,0,0,9.82-6.44A11.11,11.11,0,0,0,367.22,995.23ZM355.48,1091a7.43,7.43,0,0,0-9.82,6.44,11.12,11.12,0,0,0,7.61,11.62,7.43,7.43,0,0,0,9.82-6.44A11.13,11.13,0,0,0,355.48,1091Zm-5.87,47.89a7.43,7.43,0,0,0-9.82,6.44A11.14,11.14,0,0,0,347.4,1157a7.44,7.44,0,0,0,9.82-6.44A11.13,11.13,0,0,0,349.61,1138.89Zm35.21-287.32A7.42,7.42,0,0,0,375,858a11.12,11.12,0,0,0,7.6,11.62,7.44,7.44,0,0,0,9.82-6.44A11.12,11.12,0,0,0,384.82,851.57Zm5.87-47.89a7.43,7.43,0,0,0-9.82,6.44,11.13,11.13,0,0,0,7.61,11.62,7.43,7.43,0,0,0,9.82-6.44A11.12,11.12,0,0,0,390.69,803.68ZM297.54,1173a7.44,7.44,0,0,0-9.82,6.44,11.12,11.12,0,0,0,7.61,11.62,7.42,7.42,0,0,0,9.81-6.44A11.11,11.11,0,0,0,297.54,1173Zm40.33,61.62a7.43,7.43,0,0,0-9.82,6.44,11.13,11.13,0,0,0,7.61,11.62,7.43,7.43,0,0,0,9.82-6.44A11.13,11.13,0,0,0,337.87,1234.66ZM379,899.45a7.43,7.43,0,0,0-9.82,6.44,11.13,11.13,0,0,0,7.6,11.62,7.43,7.43,0,0,0,9.82-6.44A11.13,11.13,0,0,0,379,899.45Zm11,301a7.43,7.43,0,0,0-9.82,6.44,11.13,11.13,0,0,0,7.6,11.62,7.43,7.43,0,0,0,9.82-6.44A11.13,11.13,0,0,0,390,1200.5Zm11.73-95.77a7.43,7.43,0,0,0-9.81,6.44,11.11,11.11,0,0,0,7.6,11.62,7.43,7.43,0,0,0,9.82-6.44A11.13,11.13,0,0,0,401.68,1104.73Zm5.87-47.89a7.44,7.44,0,0,0-9.82,6.44,11.13,11.13,0,0,0,7.61,11.62,7.43,7.43,0,0,0,9.82-6.44A11.14,11.14,0,0,0,407.55,1056.84Zm-11.73,95.78a7.43,7.43,0,0,0-9.82,6.44,11.13,11.13,0,0,0,7.6,11.62,7.44,7.44,0,0,0,9.82-6.44A11.13,11.13,0,0,0,395.82,1152.62ZM413.42,1009a7.43,7.43,0,0,0-9.82,6.44,11.13,11.13,0,0,0,7.61,11.62,7.44,7.44,0,0,0,9.82-6.44A11.13,11.13,0,0,0,413.42,1009Zm-69.68,177.81a7.44,7.44,0,0,0-9.82,6.44,11.13,11.13,0,0,0,7.61,11.62,7.43,7.43,0,0,0,9.82-6.44A11.14,11.14,0,0,0,343.74,1186.77ZM431,865.3a7.43,7.43,0,0,0-9.82,6.44,11.12,11.12,0,0,0,7.61,11.62,7.43,7.43,0,0,0,9.81-6.44A11.11,11.11,0,0,0,431,865.3Zm5.87-47.89a7.44,7.44,0,0,0-9.82,6.44,11.13,11.13,0,0,0,7.6,11.62A7.43,7.43,0,0,0,444.5,829,11.13,11.13,0,0,0,436.9,817.41ZM419.29,961.07a7.44,7.44,0,0,0-9.82,6.44,11.13,11.13,0,0,0,7.61,11.62,7.43,7.43,0,0,0,9.82-6.44A11.13,11.13,0,0,0,419.29,961.07Zm5.87-47.89a7.44,7.44,0,0,0-9.82,6.45A11.12,11.12,0,0,0,423,931.24a7.43,7.43,0,0,0,9.82-6.44A11.14,11.14,0,0,0,425.16,913.18Z"/><polygon points="2697.14 1263 857.87 1315.56 990.81 230.82 2830.08 178.27 2697.14 1263"/><polygon class="cls-2" points="1417.1 1203.39 572.54 1227.52 633.58 729.42 1478.15 705.29 1417.1 1203.39"/><polygon class="cls-4" points="761.78 408.27 746.69 531.39 1591.25 507.26 1606.34 384.14 761.78 408.27"/><polygon class="cls-5" points="1249.88 49.96 1247.96 65.57 2996.52 15.61 2998.43 0 1249.88 49.96"/><path class="cls-3" d="M1917.11,1396.39l-36.21,295.45-17.05.39,36.21-295.45Zm-58.4,1.34-36.21,295.45,17-.39,36.21-295.45Zm-41.44,1-36.21,295.45,17-.39,36.21-295.46Zm-41.44,1-36.21,295.45,17.06-.39,36.21-295.45Zm-41.35.95L1698.27,1696l17-.39,36.21-295.45Zm-41.44,1L1656.83,1697l17.06-.39,36.21-295.45Zm-41.43,1-36.21,295.45,17-.39,36.21-295.45Zm-41.44,1L1574,1698.89l17-.39,36.21-295.45Zm-41.35.94-36.21,295.45,17.05-.39L1585.87,1404Zm-41.44,1-36.21,295.45,17-.39L1544.43,1405Zm-41.44,1-36.21,295.45,17-.39L1503,1405.91Zm-41.35,1-36.21,295.45,17-.39,36.21-295.45Zm-41.44,1-36.21,295.45,17.06-.39,36.21-295.45Z"/><polygon points="293.78 1460.87 292.24 1473.45 1700.9 1433.2 1702.45 1420.62 293.78 1460.87"/></g></g></svg>